<svg width="1080" height="1080" viewBox="0 0 1080 1080" fill="none" xmlns="http://www.w3.org/2000/svg">
<rect width="1080" height="1080" fill="#004B46"></rect>
<path d="M451.389 631.939H285.537V557.534H451.389V631.939Z" fill="#F5AF40"></path>
<path d="M745.641 440.513L628.617 557.534H794.463V631.939H628.611V557.534L577.65 505.681L694.229 389.104L745.641 440.513Z" fill="#F5AF40"></path>
<path d="M502.353 505.675L451.389 557.534L334.365 440.504L385.774 389.095L502.353 505.675Z" fill="#F5AF40"></path>
<path d="M577.202 505.224L540 467.371L502.798 505.224V340.273H577.202V505.224Z" fill="#F5AF40"></path>
<path d="M563.534 721.155C565.456 721.828 566.978 722.789 568.099 724.038C569.412 725.544 570.069 727.354 570.069 729.468C570.069 730.557 569.909 731.566 569.588 732.495C569.268 733.36 568.772 734.209 568.099 735.041C566.978 736.387 565.424 737.428 563.438 738.165C560.459 739.318 556.311 739.894 550.994 739.894C547.374 739.894 544.043 739.43 541 738.501C537.797 737.572 535.362 736.243 533.697 734.513C533.216 734.032 532.848 733.552 532.591 733.071L538.165 729.612C538.229 729.74 538.325 729.868 538.453 729.996C539.318 730.861 540.792 731.614 542.874 732.255C544.059 732.607 545.34 732.879 546.718 733.071C548.095 733.232 549.52 733.312 550.994 733.312C555.478 733.312 558.842 732.895 561.084 732.062C562.045 731.71 562.718 731.294 563.102 730.813C563.198 730.685 563.294 730.525 563.39 730.333C563.486 730.108 563.534 729.82 563.534 729.468C563.534 729.115 563.486 728.859 563.39 728.699C563.326 728.539 563.262 728.427 563.198 728.363C563.07 728.235 562.862 728.09 562.573 727.93C562.317 727.738 561.901 727.53 561.324 727.306C560.139 726.889 558.682 726.569 556.952 726.345C555.222 726.12 553.316 725.896 551.234 725.672L550.706 725.624C548.399 725.368 546.253 725.111 544.267 724.855C542.313 724.567 540.551 724.15 538.982 723.606C537.092 722.965 535.57 722.02 534.417 720.771C533.104 719.266 532.447 717.44 532.447 715.294C532.447 714.269 532.623 713.26 532.976 712.267C533.328 711.306 533.825 710.457 534.465 709.72C535.522 708.439 537.076 707.398 539.126 706.597C540.631 706.02 542.393 705.604 544.411 705.348C546.461 705.059 548.848 704.915 551.57 704.915C553.364 704.915 555.094 705.027 556.76 705.252C558.425 705.476 560.011 705.812 561.516 706.261C564.688 707.19 567.122 708.519 568.82 710.249C569.044 710.473 569.252 710.713 569.444 710.969C569.636 711.194 569.813 711.434 569.973 711.69L564.351 715.149L564.111 714.813C563.695 714.365 563.102 713.948 562.333 713.564C561.564 713.18 560.668 712.843 559.642 712.555C557.24 711.818 554.549 711.45 551.57 711.45C547.054 711.45 543.691 711.866 541.48 712.699C540.487 713.083 539.815 713.5 539.462 713.948C539.366 714.076 539.27 714.253 539.174 714.477C539.078 714.669 539.03 714.941 539.03 715.294C539.03 715.646 539.062 715.902 539.126 716.062C539.222 716.223 539.302 716.335 539.366 716.399C539.462 716.527 539.654 716.687 539.943 716.879C540.231 717.039 540.647 717.232 541.192 717.456C542.377 717.872 543.835 718.193 545.564 718.417C547.294 718.641 549.216 718.865 551.33 719.089L551.811 719.137C554.117 719.394 556.263 719.666 558.249 719.954C560.235 720.211 561.997 720.611 563.534 721.155Z" fill="#FFFAEF"></path>
<path d="M577.448 739.51V705.876H613.628V711.93H584.174V718.657H611.61V725.047H584.174V733.456H613.628V739.51H577.448Z" fill="#FFFAEF"></path>
<path d="M657.307 733.119V739.51H621.319V705.876H628.045V733.119H657.307Z" fill="#FFFAEF"></path>
<path d="M664.535 739.51V705.876H700.715V711.93H671.262V718.657H698.697V725.047H671.262V733.456H700.715V739.51H664.535Z" fill="#FFFAEF"></path>
<path d="M727.225 739.51C724.406 739.51 721.748 739.077 719.249 738.213C716.847 737.412 714.701 736.227 712.811 734.657C710.889 733.023 709.431 731.166 708.438 729.083C707.381 726.937 706.853 724.647 706.853 722.213C706.853 719.778 707.381 717.472 708.438 715.294C709.463 713.18 710.921 711.338 712.811 709.768C714.669 708.199 716.815 706.997 719.249 706.164C721.748 705.3 724.406 704.867 727.225 704.867C731.485 704.867 735.377 705.796 738.901 707.654C742.456 709.512 745.099 712.01 746.829 715.149L741.063 718.321C739.974 716.335 738.228 714.717 735.826 713.468C734.577 712.795 733.215 712.299 731.742 711.978C730.3 711.626 728.795 711.45 727.225 711.45C725.207 711.45 723.317 711.738 721.556 712.315C719.826 712.859 718.32 713.676 717.039 714.765C715.854 715.758 714.941 716.895 714.3 718.177C713.692 719.426 713.387 720.771 713.387 722.213C713.387 723.622 713.692 724.967 714.3 726.249C714.941 727.498 715.854 728.619 717.039 729.612C718.32 730.701 719.826 731.534 721.556 732.11C723.317 732.687 725.207 732.975 727.225 732.975C730.396 732.975 733.263 732.287 735.826 730.909C738.228 729.692 739.974 728.09 741.063 726.104L746.829 729.228C745.099 732.367 742.456 734.865 738.901 736.723C735.377 738.581 731.485 739.51 727.225 739.51Z" fill="#FFFAEF"></path>
<path d="M794.457 705.876V712.603H777.928V739.606H771.202V712.603H754.673V705.876H794.457Z" fill="#FFFAEF"></path>
<path fill-rule="evenodd" clip-rule="evenodd" d="M352 704.159C354.787 704.159 357.398 704.56 359.832 705.361C362.298 706.129 364.493 707.283 366.415 708.82C368.497 710.454 370.067 712.375 371.124 714.586C372.213 716.764 372.757 719.102 372.757 721.601C372.757 724.131 372.18 726.502 371.027 728.712C369.97 730.826 368.449 732.684 366.463 734.285C364.541 735.823 362.33 736.993 359.832 737.793C357.366 738.594 354.755 738.995 352 738.995C349.246 738.995 346.635 738.594 344.169 737.793C341.702 736.993 339.508 735.823 337.586 734.285C335.536 732.652 333.967 730.762 332.877 728.616C331.788 726.438 331.244 724.099 331.244 721.601C331.244 719.07 331.82 716.668 332.973 714.393C334.062 712.312 335.6 710.47 337.586 708.868C339.508 707.331 341.702 706.162 344.169 705.361C346.635 704.56 349.246 704.159 352 704.159ZM352 710.694C349.983 710.694 348.092 710.982 346.331 711.559C344.569 712.135 343.015 712.952 341.67 714.009C340.421 714.97 339.476 716.107 338.835 717.42C338.162 718.733 337.826 720.127 337.826 721.601C337.826 723.106 338.162 724.5 338.835 725.781C339.476 727.03 340.421 728.168 341.67 729.193C343.015 730.25 344.569 731.067 346.331 731.643C348.092 732.188 349.983 732.459 352 732.459C354.018 732.459 355.909 732.171 357.67 731.595C359.432 731.018 360.986 730.201 362.331 729.144C363.58 728.183 364.541 727.046 365.213 725.733C365.886 724.452 366.223 723.074 366.223 721.601C366.223 720.095 365.886 718.686 365.213 717.373C364.541 716.124 363.596 714.986 362.379 713.961C361.033 712.904 359.464 712.103 357.67 711.559C355.909 710.982 354.018 710.694 352 710.694Z" fill="#FFFAEF"></path>
<path d="M398.789 703.919C400.583 703.919 402.312 704.031 403.978 704.255C405.643 704.479 407.229 704.816 408.735 705.264C411.906 706.193 414.341 707.523 416.038 709.253C416.262 709.477 416.471 709.717 416.663 709.973C416.855 710.198 417.031 710.438 417.191 710.694L411.57 714.153L411.329 713.817C410.913 713.368 410.32 712.952 409.552 712.568C408.783 712.184 407.886 711.847 406.861 711.559C404.459 710.822 401.768 710.454 398.789 710.454C394.273 710.454 390.909 710.87 388.699 711.703C387.706 712.087 387.033 712.504 386.681 712.952C386.585 713.08 386.489 713.257 386.393 713.481C386.297 713.673 386.249 713.945 386.249 714.298C386.249 714.65 386.281 714.906 386.345 715.066C386.441 715.226 386.521 715.339 386.585 715.403C386.681 715.531 386.873 715.691 387.161 715.883C387.449 716.043 387.866 716.236 388.41 716.46C389.596 716.876 391.053 717.196 392.783 717.42C394.513 717.644 396.435 717.869 398.549 718.093L399.029 718.141C401.336 718.397 403.482 718.67 405.468 718.958C407.454 719.214 409.216 719.615 410.753 720.159C412.675 720.832 414.196 721.793 415.317 723.042C416.631 724.548 417.287 726.358 417.287 728.472C417.287 729.561 417.127 730.57 416.807 731.499C416.487 732.363 415.99 733.213 415.317 734.045C414.196 735.391 412.643 736.432 410.657 737.169C407.678 738.322 403.529 738.898 398.212 738.898C394.593 738.898 391.262 738.433 388.219 737.505C385.016 736.576 382.581 735.247 380.915 733.517C380.435 733.037 380.066 732.556 379.81 732.075L385.384 728.616C385.448 728.744 385.544 728.872 385.672 729C386.537 729.865 388.01 730.618 390.092 731.258C391.277 731.61 392.559 731.883 393.936 732.075C395.314 732.235 396.739 732.316 398.212 732.316C402.697 732.316 406.06 731.899 408.303 731.066C409.263 730.714 409.936 730.298 410.321 729.817C410.417 729.689 410.513 729.529 410.609 729.337C410.705 729.113 410.753 728.824 410.753 728.472C410.753 728.12 410.705 727.863 410.609 727.703C410.545 727.543 410.481 727.431 410.417 727.367C410.289 727.239 410.08 727.094 409.792 726.934C409.536 726.742 409.119 726.534 408.543 726.31C407.358 725.893 405.9 725.573 404.17 725.348C402.441 725.124 400.534 724.9 398.452 724.676L397.924 724.627C395.618 724.371 393.472 724.115 391.486 723.859C389.532 723.571 387.77 723.154 386.2 722.61C384.311 721.969 382.789 721.024 381.636 719.775C380.322 718.27 379.666 716.444 379.666 714.298C379.666 713.273 379.842 712.263 380.194 711.27C380.547 710.31 381.043 709.461 381.683 708.724C382.741 707.443 384.295 706.401 386.345 705.601C387.85 705.024 389.612 704.608 391.63 704.352C393.68 704.063 396.067 703.919 398.789 703.919Z" fill="#FFFAEF"></path>
<path d="M463.888 711.607H447.36V738.61H440.633V711.607H424.105V704.88H463.888V711.607Z" fill="#FFFAEF"></path>
<path d="M305.909 703.871C310.17 703.871 314.062 704.8 317.586 706.658C321.141 708.516 323.783 711.015 325.513 714.153L319.747 717.325C318.658 715.339 316.912 713.721 314.51 712.472C313.261 711.799 311.899 711.302 310.426 710.982C308.985 710.63 307.479 710.454 305.909 710.454C303.892 710.454 302.002 710.742 300.24 711.319C298.51 711.863 297.004 712.68 295.723 713.769C294.538 714.762 293.625 715.9 292.985 717.181C292.376 718.43 292.071 719.775 292.071 721.216C292.071 722.625 292.376 723.971 292.985 725.252C293.625 726.501 294.538 727.623 295.723 728.616C297.004 729.705 298.51 730.538 300.24 731.114C302.002 731.691 303.892 731.979 305.909 731.979C309.08 731.979 311.948 731.291 314.51 729.914C316.912 728.696 318.658 727.094 319.747 725.108L325.513 728.231C323.783 731.37 321.141 733.869 317.586 735.727C314.062 737.585 310.17 738.514 305.909 738.514C303.091 738.514 300.432 738.081 297.933 737.216C295.531 736.415 293.385 735.23 291.495 733.661C289.573 732.027 288.116 730.17 287.123 728.088C286.065 725.942 285.537 723.651 285.537 721.216C285.537 718.782 286.066 716.476 287.123 714.298C288.148 712.184 289.605 710.342 291.495 708.772C293.353 707.203 295.499 706.001 297.933 705.169C300.432 704.304 303.091 703.871 305.909 703.871Z" fill="#FFFAEF"></path>
<path fill-rule="evenodd" clip-rule="evenodd" d="M510.65 738.417H502.764L498.628 731.636H473.285L469.197 738.417H461.263L481.653 704.754H490.309L510.65 738.417ZM477.18 725.24H494.781L485.981 710.669L477.18 725.24Z" fill="#FFFAEF"></path>
</svg>