<svg width="1080" height="1080" viewBox="0 0 1080 1080" fill="none" xmlns="http://www.w3.org/2000/svg">
<rect width="1080" height="1080" fill="#004B46"/>
<path d="M498.605 568.151H466.178V553.603H498.605V568.151Z" fill="#F5AF40"/>
<path d="M556.136 530.724L533.256 553.603H565.682V568.151H533.255V553.603L523.291 543.465L546.084 520.672L556.136 530.724Z" fill="#F5AF40"/>
<path d="M508.569 543.464L498.605 553.603L475.724 530.722L485.776 520.671L508.569 543.464Z" fill="#F5AF40"/>
<path d="M523.203 543.376L515.93 535.975L508.656 543.376V511.125H523.203V543.376Z" fill="#F5AF40"/>
<path d="M631.969 544.3C634.477 545.177 636.462 546.431 637.925 548.061C639.638 550.026 640.495 552.387 640.495 555.145C640.495 556.566 640.286 557.883 639.868 559.095C639.45 560.224 638.802 561.331 637.925 562.418C636.462 564.173 634.435 565.532 631.843 566.493C627.956 567.997 622.544 568.75 615.606 568.75C610.883 568.75 606.537 568.144 602.566 566.932C598.387 565.72 595.21 563.985 593.037 561.728C592.41 561.101 591.929 560.474 591.595 559.847L598.867 555.334C598.951 555.501 599.076 555.668 599.243 555.835C600.372 556.964 602.294 557.946 605.011 558.782C606.557 559.241 608.229 559.597 610.026 559.847C611.824 560.056 613.683 560.161 615.606 560.161C621.457 560.161 625.846 559.618 628.771 558.531C630.025 558.071 630.903 557.528 631.405 556.901C631.53 556.734 631.655 556.525 631.781 556.274C631.906 555.981 631.969 555.605 631.969 555.145C631.969 554.686 631.906 554.351 631.781 554.142C631.697 553.933 631.614 553.787 631.53 553.704C631.363 553.536 631.091 553.348 630.715 553.139C630.381 552.889 629.837 552.617 629.085 552.324C627.539 551.781 625.637 551.363 623.38 551.07C621.123 550.778 618.636 550.485 615.92 550.193L615.23 550.13C612.221 549.796 609.42 549.461 606.829 549.127C604.28 548.751 601.981 548.207 599.933 547.497C597.467 546.661 595.482 545.428 593.977 543.798C592.264 541.834 591.407 539.451 591.407 536.651C591.407 535.314 591.637 533.997 592.096 532.702C592.556 531.448 593.204 530.34 594.04 529.379C595.419 527.707 597.446 526.349 600.121 525.304C602.085 524.551 604.384 524.008 607.017 523.674C609.692 523.298 612.806 523.11 616.358 523.11C618.699 523.11 620.956 523.256 623.129 523.548C625.303 523.841 627.371 524.28 629.336 524.865C633.473 526.077 636.65 527.812 638.865 530.068C639.158 530.361 639.429 530.674 639.68 531.009C639.931 531.301 640.161 531.615 640.37 531.949L633.035 536.463L632.721 536.024C632.178 535.439 631.405 534.896 630.401 534.394C629.398 533.893 628.228 533.454 626.891 533.078C623.756 532.116 620.245 531.636 616.358 531.636C610.465 531.636 606.077 532.179 603.193 533.266C601.897 533.767 601.02 534.311 600.56 534.896C600.434 535.063 600.309 535.293 600.184 535.585C600.058 535.836 599.996 536.191 599.996 536.651C599.996 537.111 600.037 537.445 600.121 537.654C600.246 537.863 600.351 538.009 600.434 538.093C600.56 538.26 600.811 538.469 601.187 538.72C601.563 538.929 602.106 539.18 602.817 539.472C604.363 540.016 606.265 540.434 608.522 540.726C610.779 541.019 613.286 541.311 616.045 541.604L616.672 541.667C619.681 542.001 622.481 542.356 625.073 542.732C627.664 543.067 629.963 543.589 631.969 544.3Z" fill="#FFFAEF"/>
<path d="M650.123 568.248V524.363H697.33V532.263H658.9V541.04H694.697V549.378H658.9V560.349H697.33V568.248H650.123Z" fill="#FFFAEF"/>
<path d="M754.322 559.91V568.248H707.365V524.363H716.142V559.91H754.322Z" fill="#FFFAEF"/>
<path d="M763.753 568.248V524.363H810.96V532.263H772.53V541.04H808.327V549.378H772.53V560.349H810.96V568.248H763.753Z" fill="#FFFAEF"/>
<path d="M845.55 568.248C841.873 568.248 838.404 567.684 835.144 566.555C832.009 565.511 829.209 563.964 826.743 561.916C824.235 559.785 822.333 557.361 821.038 554.644C819.658 551.844 818.969 548.855 818.969 545.679C818.969 542.502 819.658 539.493 821.038 536.651C822.375 533.893 824.277 531.489 826.743 529.442C829.167 527.394 831.967 525.826 835.144 524.74C838.404 523.611 841.873 523.047 845.55 523.047C851.109 523.047 856.187 524.259 860.785 526.683C865.424 529.107 868.872 532.367 871.129 536.463L863.606 540.601C862.185 538.009 859.907 535.899 856.772 534.269C855.142 533.391 853.366 532.743 851.444 532.325C849.563 531.866 847.598 531.636 845.55 531.636C842.917 531.636 840.451 532.012 838.153 532.764C835.896 533.475 833.931 534.541 832.26 535.962C830.713 537.257 829.522 538.741 828.686 540.413C827.892 542.043 827.495 543.798 827.495 545.679C827.495 547.518 827.892 549.273 828.686 550.945C829.522 552.575 830.713 554.038 832.26 555.334C833.931 556.755 835.896 557.841 838.153 558.594C840.451 559.346 842.917 559.722 845.55 559.722C849.688 559.722 853.429 558.823 856.772 557.026C859.907 555.438 862.185 553.348 863.606 550.757L871.129 554.832C868.872 558.928 865.424 562.188 860.785 564.612C856.187 567.036 851.109 568.248 845.55 568.248Z" fill="#FFFAEF"/>
<path d="M933.273 524.363V533.14H911.707V568.374H902.93V533.14H881.364V524.363H933.273Z" fill="#FFFAEF"/>
<path fill-rule="evenodd" clip-rule="evenodd" d="M233.447 523.423C237.083 523.423 240.489 523.946 243.665 524.991C246.884 525.994 249.747 527.498 252.255 529.504C254.971 531.636 257.019 534.143 258.399 537.027C259.82 539.869 260.53 542.92 260.53 546.18C260.53 549.482 259.778 552.576 258.273 555.459C256.894 558.217 254.909 560.641 252.318 562.731C249.81 564.737 246.925 566.263 243.665 567.308C240.448 568.353 237.041 568.876 233.447 568.876C229.853 568.876 226.446 568.353 223.228 567.308C220.01 566.263 217.147 564.737 214.639 562.731C211.964 560.6 209.917 558.134 208.496 555.334C207.075 552.492 206.364 549.44 206.364 546.18C206.364 542.879 207.116 539.744 208.621 536.776C210.042 534.06 212.048 531.657 214.639 529.567C217.147 527.561 220.01 526.035 223.228 524.991C226.446 523.946 229.853 523.423 233.447 523.423ZM233.447 531.95C230.814 531.95 228.348 532.326 226.049 533.078C223.751 533.83 221.723 534.896 219.968 536.275C218.338 537.529 217.105 539.012 216.269 540.726C215.391 542.439 214.953 544.258 214.953 546.18C214.953 548.145 215.391 549.963 216.269 551.635C217.105 553.265 218.338 554.749 219.968 556.086C221.723 557.465 223.751 558.531 226.049 559.284C228.348 559.994 230.814 560.349 233.447 560.349C236.08 560.348 238.546 559.973 240.845 559.22C243.144 558.468 245.171 557.402 246.926 556.023C248.556 554.769 249.809 553.285 250.687 551.572C251.565 549.9 252.004 548.103 252.004 546.18C252.004 544.216 251.565 542.377 250.687 540.664C249.809 539.034 248.577 537.549 246.988 536.212C245.233 534.833 243.185 533.788 240.845 533.078C238.546 532.325 236.08 531.95 233.447 531.95Z" fill="#FFFAEF"/>
<path d="M294.496 523.109C296.836 523.109 299.093 523.256 301.267 523.548C303.44 523.841 305.509 524.28 307.473 524.865C311.611 526.077 314.788 527.812 317.003 530.068C317.295 530.361 317.567 530.675 317.818 531.009C318.068 531.302 318.298 531.615 318.507 531.95L311.173 536.463L310.859 536.024C310.315 535.439 309.542 534.896 308.539 534.395C307.536 533.893 306.366 533.454 305.028 533.078C301.894 532.117 298.383 531.636 294.496 531.636C288.603 531.636 284.215 532.179 281.331 533.266C280.036 533.767 279.157 534.311 278.697 534.896C278.572 535.063 278.447 535.293 278.322 535.585C278.196 535.836 278.134 536.192 278.134 536.651C278.134 537.111 278.176 537.445 278.259 537.654C278.385 537.863 278.489 538.01 278.572 538.093C278.698 538.26 278.948 538.469 279.324 538.72C279.7 538.929 280.244 539.18 280.954 539.472C282.501 540.016 284.403 540.433 286.66 540.726C288.916 541.018 291.424 541.311 294.182 541.604L294.81 541.666C297.819 542 300.62 542.356 303.211 542.732C305.802 543.067 308.101 543.589 310.107 544.3C312.614 545.177 314.6 546.431 316.062 548.061C317.776 550.025 318.633 552.387 318.633 555.146C318.633 556.566 318.424 557.883 318.006 559.095C317.588 560.223 316.94 561.331 316.062 562.418C314.599 564.173 312.572 565.532 309.981 566.493C306.094 567.998 300.681 568.75 293.744 568.75C289.021 568.75 284.675 568.143 280.704 566.931C276.525 565.719 273.348 563.985 271.175 561.728C270.548 561.102 270.067 560.474 269.733 559.847L277.005 555.334C277.089 555.501 277.214 555.668 277.381 555.835C278.51 556.963 280.432 557.945 283.149 558.781C284.695 559.241 286.367 559.597 288.165 559.847C289.962 560.056 291.821 560.161 293.744 560.161C299.595 560.161 303.984 559.618 306.909 558.531C308.163 558.071 309.041 557.528 309.542 556.901C309.668 556.734 309.793 556.525 309.919 556.274C310.044 555.982 310.107 555.605 310.107 555.146C310.107 554.686 310.044 554.351 309.919 554.142C309.835 553.933 309.752 553.787 309.668 553.704C309.501 553.537 309.229 553.348 308.853 553.139C308.519 552.889 307.975 552.617 307.223 552.324C305.677 551.781 303.775 551.363 301.518 551.07C299.261 550.778 296.773 550.485 294.057 550.193L293.368 550.13C290.359 549.795 287.558 549.461 284.967 549.127C282.418 548.751 280.118 548.208 278.071 547.497C275.605 546.661 273.619 545.428 272.115 543.799C270.401 541.834 269.545 539.451 269.545 536.651C269.545 535.314 269.774 533.997 270.234 532.701C270.694 531.448 271.341 530.34 272.177 529.379C273.556 527.707 275.585 526.349 278.259 525.304C280.224 524.551 282.523 524.008 285.155 523.674C287.83 523.298 290.944 523.109 294.496 523.109Z" fill="#FFFAEF"/>
<path d="M379.437 533.14H357.871V568.373H349.094V533.14H327.528V524.363H379.437V533.14Z" fill="#FFFAEF"/>
<path d="M173.308 523.047C178.867 523.047 183.946 524.259 188.543 526.683C193.182 529.107 196.63 532.368 198.886 536.463L191.364 540.601C189.943 538.01 187.664 535.899 184.53 534.269C182.9 533.391 181.124 532.743 179.202 532.325C177.321 531.866 175.356 531.636 173.308 531.636C170.675 531.636 168.209 532.012 165.911 532.765C163.654 533.475 161.689 534.541 160.017 535.962C158.471 537.258 157.28 538.741 156.444 540.413C155.65 542.043 155.253 543.798 155.252 545.678C155.252 547.517 155.65 549.273 156.444 550.945C157.28 552.574 158.471 554.038 160.017 555.334C161.689 556.755 163.654 557.841 165.911 558.594C168.209 559.346 170.675 559.722 173.308 559.722C177.445 559.722 181.187 558.824 184.53 557.027C187.664 555.439 189.943 553.348 191.364 550.757L198.886 554.832C196.63 558.928 193.182 562.188 188.543 564.612C183.946 567.036 178.867 568.248 173.308 568.248C169.63 568.248 166.161 567.684 162.901 566.555C159.767 565.51 156.966 563.964 154.501 561.916C151.993 559.785 150.091 557.361 148.795 554.644C147.416 551.844 146.727 548.855 146.727 545.678C146.727 542.502 147.416 539.493 148.795 536.651C150.133 533.893 152.035 531.49 154.501 529.442C156.925 527.394 159.725 525.827 162.901 524.74C166.161 523.612 169.63 523.047 173.308 523.047Z" fill="#FFFAEF"/>
<path fill-rule="evenodd" clip-rule="evenodd" d="M440.452 568.121H430.161L424.765 559.274H391.697L386.364 568.121H376.011L402.616 524.199H413.91L440.452 568.121ZM396.78 550.929H419.745L408.263 531.917L396.78 550.929Z" fill="#FFFAEF"/>
</svg>
