<svg width="787" height="104" viewBox="0 0 787 104" fill="none" xmlns="http://www.w3.org/2000/svg">
<g clip-path="url(#clip0_193_393)">
<path d="M351.878 57.0257H319.451V42.4783H351.878V57.0257Z" fill="#F5AF40"/>
<path d="M409.41 19.5986L386.529 42.4783H418.955V57.0257H386.528V42.4783L376.564 32.3401L399.358 9.54728L409.41 19.5986Z" fill="#F5AF40"/>
<path d="M361.843 32.3389L351.878 42.4783L328.998 19.5969L339.049 9.54558L361.843 32.3389Z" fill="#F5AF40"/>
<path d="M376.477 32.2508L369.203 24.8499L361.929 32.2508V0H376.477V32.2508Z" fill="#F5AF40"/>
<path d="M485.242 33.1746C487.75 34.0523 489.735 35.3062 491.198 36.9362C492.912 38.9005 493.768 41.262 493.768 44.0204C493.768 45.4415 493.559 46.758 493.141 47.9701C492.724 49.0985 492.076 50.2061 491.198 51.2928C489.735 53.0482 487.708 54.4065 485.117 55.3678C481.23 56.8724 475.817 57.6247 468.879 57.6247C464.157 57.6247 459.81 57.0187 455.839 55.8066C451.66 54.5946 448.484 52.8601 446.31 50.6032C445.683 49.9762 445.203 49.3493 444.868 48.7224L452.141 44.2085C452.224 44.3757 452.35 44.5429 452.517 44.7101C453.645 45.8385 455.568 46.8207 458.284 47.6566C459.831 48.1163 461.503 48.4716 463.3 48.7224C465.097 48.9313 466.957 49.0358 468.879 49.0358C474.731 49.0358 479.119 48.4925 482.045 47.4058C483.299 46.9461 484.176 46.4028 484.678 45.7758C484.803 45.6086 484.929 45.3997 485.054 45.1489C485.18 44.8563 485.242 44.4802 485.242 44.0204C485.242 43.5607 485.18 43.2263 485.054 43.0174C484.971 42.8084 484.887 42.6621 484.803 42.5785C484.636 42.4113 484.365 42.2233 483.988 42.0143C483.654 41.7635 483.111 41.4918 482.358 41.1993C480.812 40.6559 478.91 40.238 476.653 39.9454C474.396 39.6529 471.91 39.3603 469.193 39.0677L468.503 39.005C465.494 38.6707 462.694 38.3363 460.103 38.002C457.553 37.6258 455.254 37.0825 453.206 36.372C450.74 35.5361 448.755 34.3031 447.251 32.6731C445.537 30.7087 444.68 28.3264 444.68 25.5261C444.68 24.1887 444.91 22.8722 445.37 21.5765C445.83 20.3227 446.477 19.2151 447.313 18.2538C448.692 16.582 450.72 15.2237 453.394 14.1788C455.359 13.4265 457.658 12.8832 460.291 12.5488C462.965 12.1726 466.079 11.9846 469.632 11.9846C471.972 11.9846 474.229 12.1308 476.403 12.4234C478.576 12.716 480.645 13.1548 482.609 13.74C486.747 14.952 489.923 16.6865 492.138 18.9434C492.431 19.236 492.703 19.5495 492.953 19.8838C493.204 20.1764 493.434 20.4898 493.643 20.8242L486.308 25.3381L485.995 24.8992C485.451 24.3141 484.678 23.7708 483.675 23.2692C482.672 22.7677 481.502 22.3288 480.164 21.9527C477.03 20.9914 473.519 20.5107 469.632 20.5107C463.739 20.5107 459.35 21.0541 456.466 22.1408C455.171 22.6423 454.293 23.1856 453.833 23.7708C453.708 23.9379 453.583 24.1678 453.457 24.4604C453.332 24.7111 453.269 25.0664 453.269 25.5261C453.269 25.9859 453.311 26.3203 453.394 26.5292C453.52 26.7382 453.624 26.8845 453.708 26.9681C453.833 27.1353 454.084 27.3442 454.46 27.595C454.836 27.804 455.38 28.0547 456.09 28.3473C457.637 28.8906 459.538 29.3086 461.795 29.6012C464.052 29.8937 466.56 30.1863 469.318 30.4789L469.945 30.5415C472.954 30.8759 475.755 31.2312 478.346 31.6073C480.937 31.9417 483.236 32.4641 485.242 33.1746Z" fill="#004B46"/>
<path d="M503.396 57.1232V13.2384H550.604V21.1377H512.173V29.9146H547.97V38.2527H512.173V49.2239H550.604V57.1232H503.396Z" fill="#004B46"/>
<path d="M607.595 48.7851V57.1232H560.638V13.2384H569.415V48.7851H607.595Z" fill="#004B46"/>
<path d="M617.026 57.1232V13.2384H664.234V21.1377H625.803V29.9146H661.601V38.2527H625.803V49.2239H664.234V57.1232H617.026Z" fill="#004B46"/>
<path d="M698.824 57.1232C695.146 57.1232 691.677 56.5589 688.417 55.4305C685.282 54.3856 682.482 52.8392 680.016 50.7912C677.508 48.6597 675.607 46.2356 674.311 43.5189C672.932 40.7186 672.242 37.7303 672.242 34.5539C672.242 31.3774 672.932 28.3682 674.311 25.5261C675.648 22.7677 677.55 20.3645 680.016 18.3165C682.44 16.2686 685.24 14.7012 688.417 13.6146C691.677 12.4861 695.146 11.9219 698.824 11.9219C704.383 11.9219 709.461 13.1339 714.058 15.558C718.697 17.9821 722.145 21.2422 724.402 25.3381L716.879 29.4758C715.458 26.8845 713.18 24.7738 710.046 23.1438C708.416 22.2661 706.639 21.6183 704.717 21.2004C702.836 20.7406 700.872 20.5107 698.824 20.5107C696.191 20.5107 693.725 20.8869 691.426 21.6392C689.169 22.3497 687.205 23.4155 685.533 24.8365C683.987 26.1322 682.795 27.6159 681.96 29.2877C681.165 30.9177 680.768 32.6731 680.768 34.5539C680.768 36.3928 681.165 38.1482 681.96 39.82C682.795 41.45 683.987 42.9129 685.533 44.2085C687.205 45.6295 689.169 46.7162 691.426 47.4685C693.725 48.2208 696.191 48.597 698.824 48.597C702.962 48.597 706.702 47.6984 710.046 45.9012C713.18 44.313 715.458 42.2233 716.879 39.632L724.402 43.707C722.145 47.8029 718.697 51.0629 714.058 53.487C709.461 55.9111 704.383 57.1232 698.824 57.1232Z" fill="#004B46"/>
<path d="M786.547 13.2384V22.0154H764.981V57.2486H756.204V22.0154H734.637V13.2384H786.547Z" fill="#004B46"/>
<path fill-rule="evenodd" clip-rule="evenodd" d="M86.7205 12.2981C90.3564 12.2982 93.7627 12.8208 96.9389 13.8655C100.157 14.8686 103.02 16.3731 105.528 18.3791C108.244 20.5106 110.293 23.0183 111.672 25.9019C113.093 28.7439 113.804 31.7955 113.804 35.0553C113.804 38.357 113.051 41.4506 111.546 44.3343C110.167 47.0925 108.182 49.5163 105.591 51.6059C103.083 53.612 100.199 55.1383 96.9389 56.1832C93.721 57.2279 90.3146 57.7506 86.7205 57.7506C83.1264 57.7506 79.7197 57.228 76.5016 56.1832C73.2834 55.1384 70.4202 53.612 67.9126 51.6059C65.2379 49.4745 63.19 47.0087 61.7691 44.2087C60.3481 41.3667 59.6373 38.3152 59.6373 35.0553C59.6373 31.7537 60.3896 28.6186 61.8941 25.6513C63.315 22.9349 65.3215 20.5318 67.9126 18.4422C70.4202 16.4362 73.2835 14.9104 76.5016 13.8655C79.7196 12.8208 83.1264 12.2981 86.7205 12.2981ZM86.7205 20.8246C84.0877 20.8246 81.6213 21.2005 79.3227 21.9527C77.0242 22.705 74.9964 23.771 73.2411 25.1501C71.6114 26.4038 70.3783 27.8873 69.5425 29.6006C68.6649 31.314 68.2263 33.1329 68.2263 35.0553C68.2263 37.0196 68.6648 38.8384 69.5425 40.5101C70.3784 42.1399 71.6113 43.6238 73.2411 44.9612C74.9964 46.3403 77.0241 47.4062 79.3227 48.1585C81.6213 48.8689 84.0877 49.2235 86.7205 49.2235C89.3534 49.2235 91.8198 48.8477 94.1184 48.0954C96.4169 47.3431 98.4441 46.2772 100.199 44.898C101.829 43.6443 103.083 42.1604 103.96 40.447C104.838 38.7753 105.277 36.9777 105.277 35.0553C105.277 33.0912 104.838 31.2521 103.96 29.5387C103.083 27.9088 101.85 26.4243 100.262 25.087C98.5067 23.7079 96.4586 22.6632 94.1184 21.9527C91.8198 21.2005 89.3534 20.8247 86.7205 20.8246Z" fill="#004B46"/>
<path d="M147.77 11.9844C150.11 11.9844 152.367 12.1306 154.54 12.4231C156.713 12.7157 158.782 13.1549 160.747 13.7399C164.884 14.952 168.061 16.6866 170.276 18.9435C170.569 19.236 170.84 19.5498 171.091 19.884C171.342 20.1766 171.572 20.4904 171.781 20.8246L164.446 25.3382L164.132 24.8989C163.589 24.3139 162.816 23.7709 161.813 23.2695C160.81 22.768 159.639 22.3289 158.302 21.9527C155.167 20.9915 151.656 20.5109 147.77 20.5109C141.877 20.5109 137.488 21.0543 134.605 22.1408C133.309 22.6423 132.431 23.1857 131.971 23.7708C131.846 23.9379 131.721 24.1678 131.595 24.4601C131.47 24.7109 131.407 25.0666 131.407 25.5263C131.407 25.9858 131.449 26.3198 131.533 26.5288C131.658 26.7377 131.762 26.8846 131.846 26.9681C131.971 27.1353 132.222 27.3444 132.598 27.595C132.974 27.8039 133.517 28.055 134.228 28.3475C135.774 28.8908 137.676 29.308 139.933 29.6006C142.19 29.8931 144.698 30.1861 147.456 30.4786L148.083 30.5411C151.092 30.8755 153.893 31.2312 156.484 31.6073C159.075 31.9417 161.374 32.4643 163.38 33.1748C165.888 34.0524 167.873 35.3061 169.336 36.9359C171.049 38.9002 171.906 41.2622 171.906 44.0206C171.906 45.4414 171.697 46.7579 171.279 47.9698C170.861 49.0982 170.213 50.2062 169.336 51.2928C167.873 53.048 165.846 54.407 163.255 55.3682C159.368 56.8728 153.955 57.625 147.017 57.625C142.295 57.625 137.948 57.0183 133.978 55.8064C129.798 54.5944 126.621 52.8602 124.448 50.6034C123.821 49.9766 123.341 49.3491 123.006 48.7223L130.278 44.2087C130.362 44.3758 130.488 44.5429 130.655 44.7099C131.783 45.8383 133.706 46.8202 136.422 47.6561C137.968 48.1158 139.641 48.4715 141.438 48.7223C143.235 48.9312 145.095 49.036 147.017 49.036C152.868 49.036 157.257 48.4927 160.183 47.4061C161.436 46.9464 162.314 46.4029 162.816 45.7761C162.941 45.609 163.067 45.3999 163.192 45.1493C163.317 44.8568 163.38 44.4802 163.38 44.0206C163.38 43.5609 163.317 43.2259 163.192 43.0169C163.109 42.8084 163.025 42.6624 162.941 42.5788C162.774 42.4117 162.502 42.2233 162.127 42.0144C161.792 41.7637 161.249 41.4919 160.497 41.1994C158.95 40.6561 157.048 40.2377 154.791 39.9451C152.534 39.6526 150.047 39.3602 147.33 39.0677L146.641 39.0045C143.632 38.6702 140.832 38.3364 138.241 38.0021C135.691 37.6259 133.392 37.0826 131.344 36.3721C128.878 35.5363 126.893 34.3034 125.388 32.6735C123.674 30.7092 122.818 28.3265 122.818 25.5263C122.818 24.189 123.048 22.872 123.507 21.5765C123.967 20.3229 124.615 19.2152 125.451 18.2541C126.83 16.5824 128.858 15.2235 131.533 14.1787C133.497 13.4265 135.796 12.883 138.429 12.5487C141.103 12.1726 144.217 11.9844 147.77 11.9844Z" fill="#004B46"/>
<path d="M232.71 22.0152H211.144V57.2482H202.367V22.0152H180.801V13.2381H232.71V22.0152Z" fill="#004B46"/>
<path d="M26.5814 11.9219C32.1401 11.9219 37.219 13.1339 41.8164 15.558C46.4554 17.982 49.9029 21.2425 52.1598 25.3382L44.637 29.4762C43.216 26.885 40.9379 24.7739 37.8035 23.1439C36.1737 22.2664 34.3972 21.6182 32.4749 21.2003C30.5943 20.7405 28.6293 20.5109 26.5814 20.5109C23.9486 20.5109 21.4828 20.8874 19.1842 21.6396C16.9274 22.3501 14.9625 23.416 13.2907 24.837C11.7445 26.1325 10.5536 27.6164 9.71773 29.288C8.92373 30.9179 8.52597 32.6729 8.52591 34.5535C8.52591 36.3924 8.92371 38.1478 9.71773 39.8195C10.5536 41.4495 11.7443 42.9131 13.2907 44.2087C14.9624 45.6296 16.9274 46.7163 19.1842 47.4686C21.4827 48.2207 23.9487 48.5966 26.5814 48.5967C30.7189 48.5966 34.46 47.6988 37.8035 45.9017C40.9379 44.3136 43.2159 42.2231 44.637 39.632L52.1598 43.7068C49.9029 47.8025 46.4553 51.063 41.8164 53.4871C37.219 55.9112 32.1401 57.1231 26.5814 57.1232C22.9036 57.1232 19.4343 56.5585 16.1744 55.4301C13.04 54.3853 10.2398 52.8387 7.77406 50.7909C5.26657 48.6595 3.36428 46.2358 2.06867 43.5193C0.689435 40.7191 0 37.7299 0 34.5535C5.70533e-05 31.3773 0.6896 28.3682 2.06867 25.5263C3.40609 22.768 5.30826 20.3645 7.77406 18.3166C10.198 16.2689 12.9982 14.7015 16.1744 13.6149C19.4343 12.4865 22.9036 11.9219 26.5814 11.9219Z" fill="#004B46"/>
<path fill-rule="evenodd" clip-rule="evenodd" d="M293.725 56.9963H283.434L278.038 48.1493H244.971L239.637 56.9963H229.284L255.889 13.0739H267.183L293.725 56.9963ZM250.053 39.8036H273.019L261.536 20.7915L250.053 39.8036Z" fill="#004B46"/>
<path d="M90.4727 103.078V85.2738H98.0208C98.84 85.2738 99.5923 85.4494 100.278 85.8004C100.98 86.1348 101.582 86.5862 102.083 87.1546C102.585 87.7063 102.978 88.3416 103.262 89.0605C103.546 89.7626 103.688 90.4731 103.688 91.192C103.688 91.9443 103.554 92.6799 103.287 93.3988C103.02 94.1009 102.643 94.7279 102.159 95.2795C101.674 95.8312 101.089 96.2743 100.403 96.6086C99.7177 96.943 98.9654 97.1102 98.1462 97.1102H93.9333V103.078H90.4727ZM93.9333 94.0759H97.9456C98.5809 94.0759 99.1075 93.8167 99.5255 93.2985C99.9601 92.7802 100.177 92.078 100.177 91.192C100.177 90.7406 100.111 90.3394 99.9768 89.9883C99.8431 89.6205 99.6676 89.3112 99.4502 89.0605C99.2329 88.8097 98.9738 88.6258 98.6728 88.5088C98.3886 88.375 98.0961 88.3081 97.7951 88.3081H93.9333V94.0759Z" fill="#004B46"/>
<path d="M111.112 103.078V85.2738H118.986C119.806 85.2738 120.558 85.4494 121.243 85.8004C121.945 86.1348 122.547 86.5862 123.049 87.1546C123.55 87.7063 123.943 88.3416 124.227 89.0605C124.512 89.7626 124.654 90.4731 124.654 91.192C124.654 92.3455 124.361 93.3988 123.776 94.3517C123.208 95.2879 122.43 95.965 121.444 96.3829L125.506 103.078H121.619L117.983 97.1102H114.573V103.078H111.112ZM114.573 94.0759H118.911C119.229 94.0759 119.521 94.0006 119.789 93.8502C120.073 93.6997 120.315 93.4991 120.516 93.2483C120.717 92.9808 120.876 92.6715 120.993 92.3205C121.11 91.9694 121.168 91.5932 121.168 91.192C121.168 90.774 121.101 90.3895 120.967 90.0385C120.834 89.6874 120.65 89.3865 120.416 89.1357C120.198 88.8682 119.939 88.6676 119.638 88.5338C119.354 88.3834 119.062 88.3081 118.761 88.3081H114.573V94.0759Z" fill="#004B46"/>
<path d="M145.168 100.044V103.078H132.805V85.2738H144.942V88.3081H136.265V92.5963H143.763V95.4049H136.265V100.044H145.168Z" fill="#004B46"/>
<path d="M167.401 103.078V91.2923L162.812 100.069H160.931L156.342 91.2923V103.078H152.881V85.2738H156.592L161.859 95.4049L167.175 85.2738H170.861V103.078H167.401Z" fill="#004B46"/>
<path d="M179.594 103.078V85.2738H183.055V103.078H179.594Z" fill="#004B46"/>
<path d="M199.308 100.144C200.127 100.144 200.812 99.9773 201.364 99.6429C201.933 99.3086 202.384 98.8739 202.718 98.3389C203.069 97.804 203.312 97.1938 203.446 96.5083C203.596 95.8062 203.671 95.0873 203.671 94.3517V85.2738H207.107V94.3517C207.107 95.5721 206.956 96.7173 206.655 97.7872C206.371 98.8572 205.911 99.7934 205.276 100.596C204.658 101.398 203.855 102.034 202.869 102.502C201.882 102.97 200.704 103.204 199.333 103.204C197.912 103.204 196.7 102.961 195.697 102.477C194.71 101.975 193.908 101.323 193.289 100.521C192.671 99.7015 192.219 98.7569 191.935 97.6869C191.668 96.617 191.534 95.5052 191.534 94.3517V85.2738H194.995V94.3517C194.995 95.104 195.061 95.8312 195.195 96.5334C195.346 97.2188 195.588 97.829 195.922 98.364C196.274 98.899 196.725 99.3337 197.277 99.668C197.828 99.9857 198.505 100.144 199.308 100.144Z" fill="#004B46"/>
<path d="M230.127 103.078V91.2923L225.538 100.069H223.658L219.068 91.2923V103.078H215.608V85.2738H219.319L224.585 95.4049L229.902 85.2738H233.588V103.078H230.127Z" fill="#004B46"/>
<path d="M257.642 85.2738H260.702L267.473 103.078H263.912L262.257 98.6399H256.037L254.407 103.078H250.847L257.642 85.2738ZM261.63 96.2074L259.172 89.2109L256.614 96.2074H261.63Z" fill="#004B46"/>
<path d="M279.506 85.2738H282.566L289.337 103.078H285.776L284.121 98.6399H277.902L276.271 103.078H272.711L279.506 85.2738ZM283.494 96.2074L281.036 89.2109L278.478 96.2074H283.494Z" fill="#004B46"/>
<path d="M299.766 91.6685V103.078H296.305V85.2738H298.988L308.267 96.9597V85.2989H311.727V103.078H308.919L299.766 91.6685Z" fill="#004B46"/>
<path d="M320.446 103.078V85.2989H323.907V93.7498L331.38 85.2738H335.192L328.371 93.1731L335.618 103.078H331.731L326.189 95.3799L323.907 97.7622V103.078H320.446Z" fill="#004B46"/>
<path d="M348.88 103.204C347.576 103.204 346.389 102.953 345.319 102.452C344.266 101.933 343.355 101.256 342.586 100.42C341.834 99.5677 341.248 98.5981 340.83 97.5114C340.413 96.4247 340.204 95.313 340.204 94.1762C340.204 92.9892 340.421 91.8524 340.856 90.7657C341.307 89.679 341.917 88.7177 342.686 87.8818C343.472 87.0459 344.4 86.3856 345.47 85.9007C346.54 85.3992 347.702 85.1484 348.955 85.1484C350.243 85.1484 351.413 85.4159 352.466 85.9509C353.536 86.4692 354.447 87.1546 355.2 88.0072C355.952 88.8598 356.537 89.8295 356.955 90.9161C357.373 92.0028 357.582 93.1062 357.582 94.2263C357.582 95.4133 357.365 96.5501 356.93 97.6368C356.495 98.7067 355.893 99.6597 355.124 100.496C354.355 101.315 353.436 101.975 352.366 102.477C351.296 102.961 350.134 103.204 348.88 103.204ZM343.714 94.1762C343.714 94.9452 343.831 95.6891 344.065 96.408C344.299 97.1269 344.634 97.7622 345.068 98.3139C345.52 98.8656 346.063 99.3086 346.698 99.6429C347.35 99.9773 348.086 100.144 348.905 100.144C349.741 100.144 350.477 99.9773 351.112 99.6429C351.764 99.2919 352.307 98.8321 352.742 98.2637C353.193 97.6953 353.528 97.06 353.745 96.3579C353.979 95.639 354.096 94.9118 354.096 94.1762C354.096 93.4071 353.971 92.6632 353.72 91.9443C353.486 91.2254 353.143 90.5901 352.692 90.0385C352.257 89.4868 351.714 89.0521 351.062 88.7344C350.427 88.4001 349.708 88.2329 348.905 88.2329C348.069 88.2329 347.325 88.4084 346.673 88.7595C346.021 89.0939 345.478 89.5453 345.043 90.1137C344.609 90.6654 344.274 91.3007 344.04 92.0195C343.823 92.7217 343.714 93.4406 343.714 94.1762Z" fill="#004B46"/>
<path d="M372.85 103.204C371.546 103.204 370.359 102.953 369.289 102.452C368.236 101.933 367.325 101.256 366.556 100.42C365.804 99.5677 365.218 98.5981 364.801 97.5114C364.383 96.4247 364.174 95.313 364.174 94.1762C364.174 92.9892 364.391 91.8524 364.826 90.7657C365.277 89.679 365.887 88.7177 366.656 87.8818C367.442 87.0459 368.37 86.3856 369.44 85.9007C370.51 85.3992 371.672 85.1484 372.925 85.1484C374.213 85.1484 375.383 85.4159 376.436 85.9509C377.506 86.4692 378.417 87.1546 379.17 88.0072C379.922 88.8598 380.507 89.8295 380.925 90.9161C381.343 92.0028 381.552 93.1062 381.552 94.2263C381.552 95.4133 381.335 96.5501 380.9 97.6368C380.465 98.7067 379.863 99.6597 379.094 100.496C378.325 101.315 377.406 101.975 376.336 102.477C375.266 102.961 374.104 103.204 372.85 103.204ZM367.684 94.1762C367.684 94.9452 367.801 95.6891 368.035 96.408C368.27 97.1269 368.604 97.7622 369.039 98.3139C369.49 98.8656 370.033 99.3086 370.669 99.6429C371.321 99.9773 372.056 100.144 372.875 100.144C373.711 100.144 374.447 99.9773 375.082 99.6429C375.734 99.2919 376.277 98.8321 376.712 98.2637C377.164 97.6953 377.498 97.06 377.715 96.3579C377.949 95.639 378.066 94.9118 378.066 94.1762C378.066 93.4071 377.941 92.6632 377.69 91.9443C377.456 91.2254 377.113 90.5901 376.662 90.0385C376.227 89.4868 375.684 89.0521 375.032 88.7344C374.397 88.4001 373.678 88.2329 372.875 88.2329C372.039 88.2329 371.295 88.4084 370.643 88.7595C369.991 89.0939 369.448 89.5453 369.013 90.1137C368.579 90.6654 368.244 91.3007 368.01 92.0195C367.793 92.7217 367.684 93.4406 367.684 94.1762Z" fill="#004B46"/>
<path d="M389.222 103.078V85.2738H396.77C397.589 85.2738 398.342 85.4494 399.027 85.8004C399.729 86.1348 400.331 86.5862 400.833 87.1546C401.334 87.7063 401.727 88.3416 402.011 89.0605C402.295 89.7626 402.438 90.4731 402.438 91.192C402.438 91.9443 402.304 92.6799 402.036 93.3988C401.769 94.1009 401.393 94.7279 400.908 95.2795C400.423 95.8312 399.838 96.2743 399.153 96.6086C398.467 96.943 397.715 97.1102 396.896 97.1102H392.683V103.078H389.222ZM392.683 94.0759H396.695C397.33 94.0759 397.857 93.8167 398.275 93.2985C398.709 92.7802 398.927 92.078 398.927 91.192C398.927 90.7406 398.86 90.3394 398.726 89.9883C398.592 89.6205 398.417 89.3112 398.2 89.0605C397.982 88.8097 397.723 88.6258 397.422 88.5088C397.138 88.375 396.845 88.3081 396.545 88.3081H392.683V94.0759Z" fill="#004B46"/>
<path d="M424.381 103.078V91.2923L419.792 100.069H417.911L413.322 91.2923V103.078H409.862V85.2738H413.573L418.839 95.4049L424.155 85.2738H427.842V103.078H424.381Z" fill="#004B46"/>
<path d="M441.64 85.2738H444.699L451.47 103.078H447.909L446.254 98.6399H440.035L438.405 103.078H434.844L441.64 85.2738ZM445.627 96.2074L443.17 89.2109L440.612 96.2074H445.627Z" fill="#004B46"/>
<path d="M458.438 103.078V85.2989H461.899V93.7498L469.372 85.2738H473.184L466.363 93.1731L473.61 103.078H469.723L464.181 95.3799L461.899 97.7622V103.078H458.438Z" fill="#004B46"/>
<path d="M492.592 100.044V103.078H480.229V85.2738H492.366V88.3081H483.69V92.5963H491.188V95.4049H483.69V100.044H492.592Z" fill="#004B46"/>
<path d="M500.305 103.078V85.2738H503.766V100.044H512.844V103.078H500.305Z" fill="#004B46"/>
<path d="M525.031 85.2738H528.09L534.861 103.078H531.3L529.645 98.6399H523.426L521.796 103.078H518.235L525.031 85.2738ZM529.018 96.2074L526.561 89.2109L524.003 96.2074H529.018Z" fill="#004B46"/>
<path d="M546.895 85.2738H549.954L556.725 103.078H553.164L551.509 98.6399H545.29L543.66 103.078H540.099L546.895 85.2738ZM550.882 96.2074L548.425 89.2109L545.867 96.2074H550.882Z" fill="#004B46"/>
<path d="M563.693 103.078V85.2738H571.567C572.387 85.2738 573.139 85.4494 573.824 85.8004C574.527 86.1348 575.128 86.5862 575.63 87.1546C576.131 87.7063 576.524 88.3416 576.809 89.0605C577.093 89.7626 577.235 90.4731 577.235 91.192C577.235 92.3455 576.942 93.3988 576.357 94.3517C575.789 95.2879 575.011 95.965 574.025 96.3829L578.088 103.078H574.201L570.564 97.1102H567.154V103.078H563.693ZM567.154 94.0759H571.492C571.81 94.0759 572.102 94.0006 572.37 93.8502C572.654 93.6997 572.897 93.4991 573.097 93.2483C573.298 92.9808 573.457 92.6715 573.574 92.3205C573.691 91.9694 573.749 91.5932 573.749 91.192C573.749 90.774 573.682 90.3895 573.549 90.0385C573.415 89.6874 573.231 89.3865 572.997 89.1357C572.78 88.8682 572.52 88.6676 572.219 88.5338C571.935 88.3834 571.643 88.3081 571.342 88.3081H567.154V94.0759Z" fill="#004B46"/>
<path d="M607.033 89.9381C606.916 89.8211 606.699 89.6623 606.381 89.4617C606.08 89.2611 605.704 89.0688 605.253 88.8849C604.818 88.6843 604.342 88.5171 603.823 88.3834C603.305 88.2496 602.778 88.1828 602.243 88.1828C601.291 88.1828 600.58 88.3583 600.112 88.7094C599.644 89.0604 599.41 89.5536 599.41 90.1889C599.41 90.5567 599.493 90.866 599.661 91.1168C599.844 91.3508 600.104 91.5598 600.438 91.7437C600.772 91.9276 601.19 92.0948 601.692 92.2452C602.21 92.3957 602.804 92.5545 603.472 92.7217C604.342 92.9557 605.127 93.2065 605.83 93.474C606.548 93.7415 607.15 94.0759 607.635 94.4771C608.137 94.8783 608.521 95.3631 608.789 95.9315C609.056 96.4832 609.19 97.1687 609.19 97.9879C609.19 98.9408 609.006 99.76 608.638 100.445C608.287 101.114 607.802 101.657 607.184 102.075C606.582 102.493 605.88 102.803 605.077 103.003C604.291 103.187 603.464 103.279 602.595 103.279C601.257 103.279 599.936 103.078 598.632 102.677C597.328 102.276 596.158 101.708 595.122 100.972L596.651 97.9879C596.802 98.1383 597.069 98.3389 597.454 98.5897C597.855 98.8238 598.323 99.0662 598.858 99.3169C599.393 99.551 599.987 99.7516 600.639 99.9188C601.291 100.086 601.959 100.17 602.645 100.17C604.551 100.17 605.504 99.5594 605.504 98.3389C605.504 97.9544 605.395 97.6284 605.177 97.3609C604.96 97.0934 604.651 96.8594 604.25 96.6588C603.848 96.4582 603.364 96.2743 602.795 96.1071C602.227 95.9399 601.591 95.756 600.889 95.5554C600.037 95.3213 599.293 95.0706 598.657 94.8031C598.039 94.5189 597.521 94.1929 597.103 93.8251C596.685 93.4406 596.367 93.0059 596.15 92.5211C595.949 92.0195 595.849 91.426 595.849 90.7406C595.849 89.8378 596.016 89.0354 596.35 88.3332C596.685 87.6311 597.144 87.0459 597.73 86.5778C598.331 86.1097 599.025 85.7586 599.811 85.5246C600.597 85.2738 601.441 85.1484 602.344 85.1484C603.598 85.1484 604.751 85.3491 605.804 85.7503C606.858 86.1348 607.777 86.5945 608.563 87.1295L607.033 89.9381Z" fill="#004B46"/>
<path d="M616.82 103.078V85.2738H624.368C625.188 85.2738 625.94 85.4494 626.625 85.8004C627.328 86.1348 627.929 86.5862 628.431 87.1546C628.932 87.7063 629.325 88.3416 629.61 89.0605C629.894 89.7626 630.036 90.4731 630.036 91.192C630.036 91.9443 629.902 92.6799 629.635 93.3988C629.367 94.1009 628.991 94.7279 628.506 95.2795C628.021 95.8312 627.436 96.2743 626.751 96.6086C626.065 96.943 625.313 97.1102 624.494 97.1102H620.281V103.078H616.82ZM620.281 94.0759H624.293C624.929 94.0759 625.455 93.8167 625.873 93.2985C626.308 92.7802 626.525 92.078 626.525 91.192C626.525 90.7406 626.458 90.3394 626.324 89.9883C626.191 89.6205 626.015 89.3112 625.798 89.0605C625.58 88.8097 625.321 88.6258 625.02 88.5088C624.736 88.375 624.444 88.3081 624.143 88.3081H620.281V94.0759Z" fill="#004B46"/>
<path d="M641.399 85.2738H644.458L651.229 103.078H647.668L646.013 98.6399H639.794L638.164 103.078H634.603L641.399 85.2738ZM645.386 96.2074L642.929 89.2109L640.371 96.2074H645.386Z" fill="#004B46"/>
<path d="M661.658 91.6685V103.078H658.197V85.2738H660.881L670.159 96.9597V85.2989H673.62V103.078H670.811L661.658 91.6685Z" fill="#004B46"/>
<path d="M681.436 99.4423C681.67 99.6095 682.063 99.7934 682.615 99.994C683.166 100.195 683.802 100.295 684.521 100.295C685.223 100.295 685.783 100.178 686.201 99.9439C686.619 99.6931 686.936 99.3169 687.154 98.8154C687.371 98.3139 687.513 97.6953 687.58 96.9597C687.647 96.2074 687.68 95.3297 687.68 94.3266V85.2738H691.141V94.3266C691.141 95.6808 691.066 96.9179 690.915 98.038C690.781 99.1414 690.481 100.086 690.012 100.872C689.561 101.657 688.901 102.268 688.031 102.702C687.162 103.137 685.992 103.354 684.521 103.354C683.016 103.354 681.729 102.987 680.659 102.251L681.436 99.4423Z" fill="#004B46"/>
<path d="M712.035 100.044V103.078H699.672V85.2738H711.81V88.3081H703.133V92.5963H710.631V95.4049H703.133V100.044H712.035Z" fill="#004B46"/>
</g>
<defs>
<clipPath id="clip0_193_393">
<rect width="787" height="104" fill="white"/>
</clipPath>
</defs>
</svg>
