<svg width="787" height="103" viewBox="0 0 787 103" fill="none" xmlns="http://www.w3.org/2000/svg">
<g clip-path="url(#clip0_193_386)">
<path d="M351.879 57.0257H319.452V42.4783H351.879V57.0257Z" fill="#F5AF40"/>
<path d="M409.41 19.5986L386.53 42.4783H418.956V57.0257H386.529V42.4783L376.565 32.3401L399.358 9.54728L409.41 19.5986Z" fill="#F5AF40"/>
<path d="M361.843 32.3389L351.879 42.4783L328.998 19.5969L339.05 9.54558L361.843 32.3389Z" fill="#F5AF40"/>
<path d="M376.477 32.2508L369.204 24.8499L361.93 32.2508V0H376.477V32.2508Z" fill="#F5AF40"/>
<path d="M485.242 33.1746C487.75 34.0523 489.735 35.3062 491.198 36.9362C492.912 38.9006 493.768 41.262 493.768 44.0204C493.768 45.4415 493.559 46.758 493.141 47.9701C492.724 49.0985 492.076 50.2061 491.198 51.2928C489.735 53.0482 487.708 54.4065 485.117 55.3678C481.23 56.8724 475.817 57.6247 468.879 57.6247C464.157 57.6247 459.81 57.0187 455.839 55.8066C451.66 54.5946 448.484 52.8601 446.31 50.6032C445.683 49.9762 445.203 49.3493 444.868 48.7224L452.141 44.2085C452.224 44.3757 452.35 44.5429 452.517 44.7101C453.645 45.8385 455.568 46.8207 458.284 47.6566C459.831 48.1164 461.503 48.4716 463.3 48.7224C465.097 48.9314 466.957 49.0358 468.879 49.0358C474.731 49.0358 479.119 48.4925 482.045 47.4058C483.299 46.9461 484.176 46.4028 484.678 45.7758C484.803 45.6087 484.929 45.3997 485.054 45.1489C485.18 44.8563 485.242 44.4802 485.242 44.0204C485.242 43.5607 485.18 43.2263 485.054 43.0174C484.971 42.8084 484.887 42.6621 484.803 42.5785C484.636 42.4113 484.365 42.2233 483.988 42.0143C483.654 41.7635 483.111 41.4918 482.358 41.1993C480.812 40.6559 478.91 40.238 476.653 39.9454C474.396 39.6529 471.91 39.3603 469.193 39.0677L468.503 39.005C465.494 38.6707 462.694 38.3363 460.103 38.002C457.553 37.6258 455.254 37.0825 453.206 36.372C450.74 35.5361 448.755 34.3031 447.251 32.6731C445.537 30.7087 444.68 28.3264 444.68 25.5261C444.68 24.1887 444.91 22.8722 445.37 21.5765C445.83 20.3227 446.477 19.2151 447.313 18.2538C448.692 16.582 450.72 15.2237 453.394 14.1788C455.359 13.4265 457.658 12.8832 460.291 12.5488C462.965 12.1726 466.079 11.9846 469.632 11.9846C471.972 11.9846 474.229 12.1308 476.403 12.4234C478.576 12.716 480.645 13.1548 482.609 13.74C486.747 14.952 489.923 16.6865 492.138 18.9434C492.431 19.236 492.703 19.5495 492.953 19.8838C493.204 20.1764 493.434 20.4899 493.643 20.8242L486.308 25.3381L485.995 24.8992C485.451 24.3141 484.678 23.7708 483.675 23.2692C482.672 22.7677 481.502 22.3288 480.164 21.9527C477.03 20.9914 473.519 20.5107 469.632 20.5107C463.739 20.5107 459.35 21.0541 456.466 22.1408C455.171 22.6423 454.293 23.1856 453.833 23.7708C453.708 23.9379 453.583 24.1678 453.457 24.4604C453.332 24.7111 453.269 25.0664 453.269 25.5261C453.269 25.9859 453.311 26.3203 453.394 26.5292C453.52 26.7382 453.624 26.8845 453.708 26.9681C453.833 27.1353 454.084 27.3442 454.46 27.595C454.836 27.804 455.38 28.0547 456.09 28.3473C457.637 28.8906 459.538 29.3086 461.795 29.6012C464.052 29.8937 466.56 30.1863 469.318 30.4789L469.945 30.5415C472.954 30.8759 475.755 31.2312 478.346 31.6073C480.937 31.9417 483.236 32.4641 485.242 33.1746Z" fill="#004B46"/>
<path d="M503.396 57.1232V13.2384H550.604V21.1377H512.173V29.9146H547.97V38.2527H512.173V49.2239H550.604V57.1232H503.396Z" fill="#004B46"/>
<path d="M607.595 48.7851V57.1232H560.638V13.2384H569.415V48.7851H607.595Z" fill="#004B46"/>
<path d="M617.026 57.1232V13.2384H664.234V21.1377H625.803V29.9146H661.601V38.2527H625.803V49.2239H664.234V57.1232H617.026Z" fill="#004B46"/>
<path d="M698.824 57.1232C695.146 57.1232 691.677 56.5589 688.417 55.4305C685.282 54.3856 682.482 52.8392 680.016 50.7912C677.508 48.6597 675.607 46.2356 674.311 43.5189C672.932 40.7186 672.242 37.7303 672.242 34.5539C672.242 31.3775 672.932 28.3682 674.311 25.5261C675.648 22.7677 677.55 20.3645 680.016 18.3165C682.44 16.2686 685.24 14.7012 688.417 13.6146C691.677 12.4861 695.146 11.9219 698.824 11.9219C704.383 11.9219 709.461 13.1339 714.058 15.558C718.697 17.9822 722.145 21.2422 724.402 25.3381L716.879 29.4758C715.458 26.8845 713.18 24.7738 710.046 23.1438C708.416 22.2661 706.64 21.6183 704.717 21.2004C702.836 20.7406 700.872 20.5107 698.824 20.5107C696.191 20.5107 693.725 20.8869 691.426 21.6392C689.169 22.3497 687.205 23.4155 685.533 24.8365C683.987 26.1322 682.795 27.6159 681.96 29.2877C681.165 30.9177 680.768 32.6731 680.768 34.5539C680.768 36.3929 681.165 38.1482 681.96 39.82C682.795 41.45 683.987 42.9129 685.533 44.2085C687.205 45.6295 689.169 46.7162 691.426 47.4685C693.725 48.2208 696.191 48.597 698.824 48.597C702.962 48.597 706.702 47.6984 710.046 45.9012C713.18 44.313 715.458 42.2233 716.879 39.632L724.402 43.707C722.145 47.8029 718.697 51.0629 714.058 53.487C709.461 55.9111 704.383 57.1232 698.824 57.1232Z" fill="#004B46"/>
<path d="M786.547 13.2384V22.0154H764.981V57.2486H756.204V22.0154H734.637V13.2384H786.547Z" fill="#004B46"/>
<path fill-rule="evenodd" clip-rule="evenodd" d="M86.7206 12.2981C90.3564 12.2982 93.7627 12.8208 96.9389 13.8655C100.157 14.8686 103.02 16.3731 105.528 18.3791C108.244 20.5106 110.293 23.0183 111.672 25.9019C113.093 28.7439 113.804 31.7955 113.804 35.0553C113.804 38.357 113.051 41.4506 111.546 44.3343C110.167 47.0925 108.182 49.5163 105.591 51.6059C103.083 53.612 100.199 55.1383 96.9389 56.1832C93.721 57.2279 90.3146 57.7506 86.7206 57.7506C83.1264 57.7506 79.7197 57.228 76.5016 56.1832C73.2834 55.1384 70.4202 53.612 67.9126 51.6059C65.2379 49.4745 63.19 47.0088 61.7691 44.2087C60.3481 41.3667 59.6373 38.3152 59.6373 35.0553C59.6373 31.7537 60.3896 28.6186 61.8941 25.6513C63.315 22.9349 65.3215 20.5318 67.9126 18.4422C70.4202 16.4362 73.2835 14.9104 76.5016 13.8655C79.7196 12.8208 83.1264 12.2981 86.7206 12.2981ZM86.7206 20.8246C84.0877 20.8246 81.6213 21.2005 79.3227 21.9527C77.0242 22.705 74.9964 23.771 73.2411 25.1501C71.6114 26.4038 70.3783 27.8873 69.5425 29.6006C68.6649 31.314 68.2264 33.1329 68.2263 35.0553C68.2263 37.0196 68.6648 38.8384 69.5425 40.5101C70.3784 42.1399 71.6113 43.6238 73.2411 44.9612C74.9964 46.3403 77.0242 47.4063 79.3227 48.1585C81.6213 48.8689 84.0877 49.2235 86.7206 49.2235C89.3535 49.2235 91.8198 48.8477 94.1184 48.0954C96.4169 47.3431 98.4441 46.2772 100.199 44.8981C101.829 43.6443 103.083 42.1604 103.96 40.447C104.838 38.7753 105.277 36.9777 105.277 35.0553C105.277 33.0912 104.838 31.2521 103.96 29.5387C103.083 27.9088 101.85 26.4243 100.262 25.087C98.5067 23.7079 96.4586 22.6632 94.1184 21.9527C91.8198 21.2005 89.3535 20.8247 86.7206 20.8246Z" fill="#004B46"/>
<path d="M147.77 11.9844C150.11 11.9844 152.367 12.1306 154.54 12.4231C156.713 12.7157 158.782 13.1549 160.747 13.7399C164.884 14.952 168.061 16.6866 170.276 18.9435C170.569 19.236 170.84 19.5498 171.091 19.8841C171.342 20.1766 171.572 20.4904 171.781 20.8246L164.446 25.3382L164.132 24.8989C163.589 24.3139 162.816 23.7709 161.813 23.2695C160.81 22.768 159.639 22.3289 158.302 21.9527C155.167 20.9915 151.656 20.5109 147.77 20.5109C141.877 20.5109 137.488 21.0543 134.605 22.1408C133.309 22.6423 132.431 23.1857 131.971 23.7708C131.846 23.9379 131.721 24.1678 131.595 24.4601C131.47 24.7109 131.407 25.0666 131.407 25.5263C131.407 25.9858 131.449 26.3198 131.533 26.5288C131.658 26.7377 131.762 26.8846 131.846 26.9681C131.971 27.1353 132.222 27.3444 132.598 27.595C132.974 27.8039 133.517 28.055 134.228 28.3475C135.774 28.8908 137.676 29.308 139.933 29.6006C142.19 29.8931 144.698 30.1861 147.456 30.4786L148.083 30.5411C151.092 30.8755 153.893 31.2312 156.484 31.6073C159.075 31.9417 161.374 32.4643 163.38 33.1748C165.888 34.0524 167.873 35.3061 169.336 36.9359C171.049 38.9002 171.906 41.2622 171.906 44.0206C171.906 45.4414 171.697 46.7579 171.279 47.9698C170.861 49.0982 170.213 50.2062 169.336 51.2928C167.873 53.048 165.846 54.407 163.255 55.3682C159.368 56.8728 153.955 57.625 147.017 57.625C142.295 57.625 137.948 57.0183 133.978 55.8064C129.798 54.5944 126.621 52.8602 124.448 50.6034C123.821 49.9766 123.341 49.3491 123.006 48.7223L130.278 44.2087C130.362 44.3758 130.488 44.5429 130.655 44.7099C131.783 45.8383 133.706 46.8202 136.422 47.6561C137.968 48.1158 139.641 48.4715 141.438 48.7223C143.235 48.9312 145.095 49.036 147.017 49.036C152.868 49.036 157.257 48.4927 160.183 47.4061C161.436 46.9464 162.314 46.4029 162.816 45.7761C162.941 45.609 163.067 45.3999 163.192 45.1493C163.317 44.8568 163.38 44.4802 163.38 44.0206C163.38 43.5609 163.317 43.2259 163.192 43.0169C163.109 42.8084 163.025 42.6624 162.942 42.5788C162.774 42.4117 162.502 42.2233 162.127 42.0144C161.792 41.7637 161.249 41.4919 160.497 41.1994C158.95 40.6561 157.048 40.2377 154.791 39.9451C152.534 39.6526 150.047 39.3602 147.33 39.0677L146.641 39.0045C143.632 38.6702 140.832 38.3364 138.241 38.0021C135.691 37.6259 133.392 37.0826 131.344 36.3721C128.878 35.5363 126.893 34.3034 125.388 32.6735C123.674 30.7092 122.818 28.3265 122.818 25.5263C122.818 24.189 123.048 22.872 123.507 21.5765C123.967 20.3229 124.615 19.2152 125.451 18.2541C126.83 16.5824 128.858 15.2235 131.533 14.1787C133.497 13.4265 135.796 12.883 138.429 12.5487C141.103 12.1726 144.217 11.9844 147.77 11.9844Z" fill="#004B46"/>
<path d="M232.71 22.0152H211.144V57.2482H202.367V22.0152H180.801V13.2381H232.71V22.0152Z" fill="#004B46"/>
<path d="M26.5814 11.9219C32.1401 11.9219 37.219 13.1339 41.8164 15.558C46.4554 17.982 49.9029 21.2425 52.1598 25.3382L44.637 29.4762C43.216 26.885 40.9379 24.7739 37.8035 23.1439C36.1737 22.2664 34.3972 21.6182 32.4749 21.2003C30.5943 20.7405 28.6293 20.5109 26.5814 20.5109C23.9486 20.5109 21.4828 20.8874 19.1842 21.6396C16.9274 22.3501 14.9625 23.416 13.2907 24.837C11.7445 26.1325 10.5536 27.6164 9.71773 29.288C8.92373 30.9179 8.52597 32.6729 8.52591 34.5535C8.52591 36.3924 8.92371 38.1478 9.71773 39.8195C10.5536 41.4495 11.7443 42.9131 13.2907 44.2087C14.9624 45.6296 16.9274 46.7163 19.1842 47.4686C21.4827 48.2207 23.9487 48.5966 26.5814 48.5967C30.7189 48.5966 34.46 47.6988 37.8035 45.9017C40.9379 44.3136 43.216 42.2231 44.637 39.632L52.1598 43.7069C49.9029 47.8025 46.4553 51.063 41.8164 53.4871C37.219 55.9112 32.1401 57.1232 26.5814 57.1232C22.9036 57.1232 19.4343 56.5585 16.1744 55.4301C13.04 54.3853 10.2398 52.8387 7.77406 50.7909C5.26657 48.6595 3.36428 46.2358 2.06867 43.5193C0.689435 40.7191 0 37.7299 0 34.5535C5.70533e-05 31.3773 0.6896 28.3682 2.06867 25.5263C3.40609 22.768 5.30826 20.3645 7.77406 18.3166C10.198 16.2689 12.9982 14.7015 16.1744 13.6149C19.4343 12.4865 22.9036 11.9219 26.5814 11.9219Z" fill="#004B46"/>
<path fill-rule="evenodd" clip-rule="evenodd" d="M293.725 56.9963H283.434L278.038 48.1493H244.971L239.637 56.9963H229.284L255.889 13.0739H267.183L293.725 56.9963ZM250.053 39.8036H273.019L261.536 20.7915L250.053 39.8036Z" fill="#004B46"/>
<path d="M158.359 103.078V85.2738H165.908C166.727 85.2738 167.479 85.4494 168.164 85.8004C168.867 86.1348 169.468 86.5862 169.97 87.1546C170.472 87.7063 170.864 88.3416 171.149 89.0605C171.433 89.7626 171.575 90.4731 171.575 91.192C171.575 91.9443 171.441 92.6799 171.174 93.3988C170.906 94.1009 170.53 94.7279 170.045 95.2795C169.56 95.8312 168.975 96.2743 168.29 96.6086C167.604 96.943 166.852 97.1102 166.033 97.1102H161.82V103.078H158.359ZM161.82 94.0759H165.832C166.468 94.0759 166.994 93.8167 167.412 93.2985C167.847 92.7802 168.064 92.078 168.064 91.192C168.064 90.7406 167.997 90.3394 167.864 89.9883C167.73 89.6205 167.554 89.3112 167.337 89.0605C167.12 88.8097 166.86 88.6258 166.56 88.5088C166.275 88.375 165.983 88.3081 165.682 88.3081H161.82V94.0759Z" fill="#004B46"/>
<path d="M178.999 103.078V85.2738H186.873C187.692 85.2738 188.445 85.4494 189.13 85.8004C189.832 86.1348 190.434 86.5862 190.936 87.1546C191.437 87.7063 191.83 88.3416 192.114 89.0605C192.398 89.7626 192.541 90.4731 192.541 91.192C192.541 92.3455 192.248 93.3988 191.663 94.3517C191.094 95.2879 190.317 95.965 189.331 96.3829L193.393 103.078H189.506L185.87 97.1102H182.46V103.078H178.999ZM182.46 94.0759H186.798C187.116 94.0759 187.408 94.0006 187.676 93.8502C187.96 93.6997 188.202 93.4991 188.403 93.2483C188.603 92.9808 188.762 92.6715 188.879 92.3205C188.996 91.9694 189.055 91.5932 189.055 91.192C189.055 90.774 188.988 90.3895 188.854 90.0385C188.72 89.6874 188.537 89.3865 188.302 89.1357C188.085 88.8682 187.826 88.6676 187.525 88.5338C187.241 88.3834 186.948 88.3081 186.647 88.3081H182.46V94.0759Z" fill="#004B46"/>
<path d="M213.054 100.044V103.078H200.692V85.2738H212.829V88.3081H204.152V92.5963H211.65V95.4049H204.152V100.044H213.054Z" fill="#004B46"/>
<path d="M235.287 103.078V91.2923L230.698 100.069H228.818L224.228 91.2923V103.078H220.768V85.2738H224.479L229.745 95.4049L235.062 85.2738H238.748V103.078H235.287Z" fill="#004B46"/>
<path d="M247.481 103.078V85.2738H250.941V103.078H247.481Z" fill="#004B46"/>
<path d="M267.195 100.144C268.014 100.144 268.699 99.9773 269.251 99.6429C269.819 99.3086 270.271 98.8739 270.605 98.3389C270.956 97.804 271.199 97.1938 271.332 96.5083C271.483 95.8062 271.558 95.0873 271.558 94.3517V85.2738H274.993V94.3517C274.993 95.5721 274.843 96.7173 274.542 97.7872C274.258 98.8572 273.798 99.7934 273.163 100.596C272.544 101.398 271.742 102.034 270.755 102.502C269.769 102.97 268.591 103.204 267.22 103.204C265.799 103.204 264.587 102.961 263.583 102.477C262.597 101.975 261.795 101.323 261.176 100.521C260.558 99.7015 260.106 98.7569 259.822 97.6869C259.554 96.617 259.421 95.5052 259.421 94.3517V85.2738H262.881V94.3517C262.881 95.104 262.948 95.8312 263.082 96.5334C263.232 97.2188 263.475 97.829 263.809 98.364C264.16 98.899 264.612 99.3337 265.163 99.668C265.715 99.9857 266.392 100.144 267.195 100.144Z" fill="#004B46"/>
<path d="M298.014 103.078V91.2923L293.425 100.069H291.544L286.955 91.2923V103.078H283.495V85.2738H287.206L292.472 95.4049L297.788 85.2738H301.475V103.078H298.014Z" fill="#004B46"/>
<path d="M321.247 103.078V85.2738H328.795C329.615 85.2738 330.367 85.4494 331.052 85.8004C331.755 86.1348 332.356 86.5862 332.858 87.1546C333.359 87.7063 333.752 88.3416 334.037 89.0605C334.321 89.7626 334.463 90.4731 334.463 91.192C334.463 91.9443 334.329 92.6799 334.062 93.3988C333.794 94.1009 333.418 94.7279 332.933 95.2795C332.448 95.8312 331.863 96.2743 331.178 96.6086C330.492 96.943 329.74 97.1102 328.921 97.1102H324.708V103.078H321.247ZM324.708 94.0759H328.72C329.355 94.0759 329.882 93.8167 330.3 93.2985C330.735 92.7802 330.952 92.078 330.952 91.192C330.952 90.7406 330.885 90.3394 330.751 89.9883C330.618 89.6205 330.442 89.3112 330.225 89.0605C330.007 88.8097 329.748 88.6258 329.447 88.5088C329.163 88.375 328.871 88.3081 328.57 88.3081H324.708V94.0759Z" fill="#004B46"/>
<path d="M341.887 103.078V85.2738H349.761C350.58 85.2738 351.332 85.4494 352.018 85.8004C352.72 86.1348 353.322 86.5862 353.823 87.1546C354.325 87.7063 354.718 88.3416 355.002 89.0605C355.286 89.7626 355.428 90.4731 355.428 91.192C355.428 92.3455 355.136 93.3988 354.551 94.3517C353.982 95.2879 353.205 95.965 352.219 96.3829L356.281 103.078H352.394L348.758 97.1102H345.347V103.078H341.887ZM345.347 94.0759H349.686C350.003 94.0759 350.296 94.0006 350.563 93.8502C350.848 93.6997 351.09 93.4991 351.291 93.2483C351.491 92.9808 351.65 92.6715 351.767 92.3205C351.884 91.9694 351.943 91.5932 351.943 91.192C351.943 90.774 351.876 90.3895 351.742 90.0385C351.608 89.6874 351.424 89.3865 351.19 89.1357C350.973 88.8682 350.714 88.6676 350.413 88.5338C350.129 88.3834 349.836 88.3081 349.535 88.3081H345.347V94.0759Z" fill="#004B46"/>
<path d="M371.178 103.204C369.874 103.204 368.687 102.953 367.617 102.452C366.564 101.933 365.652 101.256 364.883 100.42C364.131 99.5677 363.546 98.5981 363.128 97.5114C362.71 96.4247 362.501 95.313 362.501 94.1762C362.501 92.9892 362.718 91.8524 363.153 90.7657C363.604 89.679 364.215 88.7177 364.984 87.8818C365.769 87.0459 366.697 86.3856 367.767 85.9007C368.837 85.3992 369.999 85.1484 371.253 85.1484C372.54 85.1484 373.71 85.4159 374.764 85.9509C375.834 86.4692 376.745 87.1546 377.497 88.0072C378.249 88.8598 378.835 89.8295 379.252 90.9161C379.67 92.0028 379.879 93.1062 379.879 94.2263C379.879 95.4133 379.662 96.5501 379.227 97.6368C378.793 98.7067 378.191 99.6597 377.422 100.496C376.653 101.315 375.733 101.975 374.663 102.477C373.593 102.961 372.432 103.204 371.178 103.204ZM366.012 94.1762C366.012 94.9452 366.129 95.6891 366.363 96.408C366.597 97.1269 366.931 97.7622 367.366 98.3139C367.817 98.8656 368.361 99.3086 368.996 99.6429C369.648 99.9773 370.384 100.144 371.203 100.144C372.039 100.144 372.774 99.9773 373.41 99.6429C374.062 99.2919 374.605 98.8321 375.04 98.2637C375.491 97.6953 375.825 97.06 376.043 96.3579C376.277 95.639 376.394 94.9118 376.394 94.1762C376.394 93.4071 376.268 92.6632 376.018 91.9443C375.784 91.2254 375.441 90.5901 374.989 90.0385C374.555 89.4868 374.011 89.0521 373.359 88.7344C372.724 88.4001 372.005 88.2329 371.203 88.2329C370.367 88.2329 369.623 88.4084 368.971 88.7595C368.319 89.0939 367.776 89.5453 367.341 90.1137C366.906 90.6654 366.572 91.3007 366.338 92.0195C366.121 92.7217 366.012 93.4406 366.012 94.1762Z" fill="#004B46"/>
<path d="M387.549 103.078V85.2738H395.098C395.917 85.2738 396.669 85.4494 397.355 85.8004C398.057 86.1348 398.659 86.5862 399.16 87.1546C399.662 87.7063 400.055 88.3416 400.339 89.0605C400.623 89.7626 400.765 90.4731 400.765 91.192C400.765 91.9443 400.631 92.6799 400.364 93.3988C400.096 94.1009 399.72 94.7279 399.235 95.2795C398.751 95.8312 398.165 96.2743 397.48 96.6086C396.795 96.943 396.042 97.1102 395.223 97.1102H391.01V103.078H387.549ZM391.01 94.0759H395.022C395.658 94.0759 396.184 93.8167 396.602 93.2985C397.037 92.7802 397.254 92.078 397.254 91.192C397.254 90.7406 397.187 90.3394 397.054 89.9883C396.92 89.6205 396.744 89.3112 396.527 89.0605C396.31 88.8097 396.051 88.6258 395.75 88.5088C395.465 88.375 395.173 88.3081 394.872 88.3081H391.01V94.0759Z" fill="#004B46"/>
<path d="M420.552 100.044V103.078H408.189V85.2738H420.326V88.3081H411.65V92.5963H419.148V95.4049H411.65V100.044H420.552Z" fill="#004B46"/>
<path d="M428.265 103.078V85.2738H436.14C436.959 85.2738 437.711 85.4494 438.396 85.8004C439.099 86.1348 439.7 86.5862 440.202 87.1546C440.704 87.7063 441.096 88.3416 441.381 89.0605C441.665 89.7626 441.807 90.4731 441.807 91.192C441.807 92.3455 441.514 93.3988 440.929 94.3517C440.361 95.2879 439.583 95.965 438.597 96.3829L442.66 103.078H438.773L435.136 97.1102H431.726V103.078H428.265ZM431.726 94.0759H436.064C436.382 94.0759 436.674 94.0006 436.942 93.8502C437.226 93.6997 437.469 93.4991 437.669 93.2483C437.87 92.9808 438.029 92.6715 438.146 92.3205C438.263 91.9694 438.321 91.5932 438.321 91.192C438.321 90.774 438.254 90.3895 438.121 90.0385C437.987 89.6874 437.803 89.3865 437.569 89.1357C437.352 88.8682 437.092 88.6676 436.791 88.5338C436.507 88.3834 436.215 88.3081 435.914 88.3081H431.726V94.0759Z" fill="#004B46"/>
<path d="M463.004 88.3081H457.312V103.078H453.876V88.3081H448.184V85.2738H463.004V88.3081Z" fill="#004B46"/>
<path d="M472.236 85.2738L476.625 93.8502L481.088 85.2738H484.825L478.355 96.8594V103.078H474.92V96.8092L468.475 85.2738H472.236Z" fill="#004B46"/>
<path d="M501.983 103.078V85.2738H509.531C510.35 85.2738 511.103 85.4494 511.788 85.8004C512.49 86.1348 513.092 86.5862 513.594 87.1546C514.095 87.7063 514.488 88.3416 514.772 89.0605C515.056 89.7626 515.198 90.4731 515.198 91.192C515.198 91.9443 515.065 92.6799 514.797 93.3988C514.53 94.1009 514.154 94.7279 513.669 95.2795C513.184 95.8312 512.599 96.2743 511.913 96.6086C511.228 96.943 510.476 97.1102 509.656 97.1102H505.444V103.078H501.983ZM505.444 94.0759H509.456C510.091 94.0759 510.618 93.8167 511.036 93.2985C511.47 92.7802 511.688 92.078 511.688 91.192C511.688 90.7406 511.621 90.3394 511.487 89.9883C511.353 89.6205 511.178 89.3112 510.96 89.0605C510.743 88.8097 510.484 88.6258 510.183 88.5088C509.899 88.375 509.606 88.3081 509.305 88.3081H505.444V94.0759Z" fill="#004B46"/>
<path d="M526.561 85.2738H529.621L536.392 103.078H532.831L531.176 98.6399H524.957L523.327 103.078H519.766L526.561 85.2738ZM530.549 96.2074L528.091 89.2109L525.533 96.2074H530.549Z" fill="#004B46"/>
<path d="M543.36 103.078V85.2738H551.234C552.053 85.2738 552.806 85.4494 553.491 85.8004C554.193 86.1348 554.795 86.5862 555.297 87.1546C555.798 87.7063 556.191 88.3416 556.475 89.0605C556.759 89.7626 556.901 90.4731 556.901 91.192C556.901 92.3455 556.609 93.3988 556.024 94.3517C555.455 95.2879 554.678 95.965 553.692 96.3829L557.754 103.078H553.867L550.231 97.1102H546.821V103.078H543.36ZM546.821 94.0759H551.159C551.477 94.0759 551.769 94.0006 552.037 93.8502C552.321 93.6997 552.563 93.4991 552.764 93.2483C552.964 92.9808 553.123 92.6715 553.24 92.3205C553.357 91.9694 553.416 91.5932 553.416 91.192C553.416 90.774 553.349 90.3895 553.215 90.0385C553.081 89.6874 552.898 89.3865 552.664 89.1357C552.446 88.8682 552.187 88.6676 551.886 88.5338C551.602 88.3834 551.309 88.3081 551.008 88.3081H546.821V94.0759Z" fill="#004B46"/>
<path d="M578.099 88.3081H572.407V103.078H568.971V88.3081H563.279V85.2738H578.099V88.3081Z" fill="#004B46"/>
<path d="M588.785 91.6685V103.078H585.325V85.2738H588.008L597.286 96.9597V85.2989H600.747V103.078H597.938L588.785 91.6685Z" fill="#004B46"/>
<path d="M621.829 100.044V103.078H609.466V85.2738H621.604V88.3081H612.927V92.5963H620.425V95.4049H612.927V100.044H621.829Z" fill="#004B46"/>
<path d="M629.543 103.078V85.2738H637.417C638.236 85.2738 638.988 85.4494 639.674 85.8004C640.376 86.1348 640.978 86.5862 641.479 87.1546C641.981 87.7063 642.374 88.3416 642.658 89.0605C642.942 89.7626 643.084 90.4731 643.084 91.192C643.084 92.3455 642.792 93.3988 642.206 94.3517C641.638 95.2879 640.861 95.965 639.874 96.3829L643.937 103.078H640.05L636.414 97.1102H633.003V103.078H629.543ZM633.003 94.0759H637.342C637.659 94.0759 637.952 94.0006 638.219 93.8502C638.503 93.6997 638.746 93.4991 638.946 93.2483C639.147 92.9808 639.306 92.6715 639.423 92.3205C639.54 91.9694 639.598 91.5932 639.598 91.192C639.598 90.774 639.532 90.3895 639.398 90.0385C639.264 89.6874 639.08 89.3865 638.846 89.1357C638.629 88.8682 638.37 88.6676 638.069 88.5338C637.785 88.3834 637.492 88.3081 637.191 88.3081H633.003V94.0759Z" fill="#004B46"/>
</g>
<defs>
<clipPath id="clip0_193_386">
<rect width="787" height="103" fill="white"/>
</clipPath>
</defs>
</svg>
