<svg width="787" height="58" viewBox="0 0 787 58" fill="none" xmlns="http://www.w3.org/2000/svg">
<g clip-path="url(#clip0_193_424)">
<path d="M351.878 57.0257H319.451V42.4783H351.878V57.0257Z" fill="#F5AF40"></path>
<path d="M409.41 19.5986L386.529 42.4783H418.955V57.0257H386.528V42.4783L376.564 32.3401L399.358 9.54728L409.41 19.5986Z" fill="#F5AF40"></path>
<path d="M361.843 32.3389L351.878 42.4783L328.998 19.5969L339.049 9.54558L361.843 32.3389Z" fill="#F5AF40"></path>
<path d="M376.477 32.2509L369.203 24.8499L361.93 32.2509V0H376.477V32.2509Z" fill="#F5AF40"></path>
<path d="M485.242 33.1746C487.75 34.0523 489.735 35.3062 491.198 36.9362C492.912 38.9006 493.768 41.262 493.768 44.0204C493.768 45.4415 493.559 46.758 493.141 47.9701C492.724 49.0985 492.076 50.2061 491.198 51.2928C489.735 53.0482 487.708 54.4065 485.117 55.3678C481.23 56.8724 475.817 57.6247 468.879 57.6247C464.157 57.6247 459.81 57.0187 455.839 55.8066C451.66 54.5946 448.484 52.8601 446.31 50.6032C445.683 49.9762 445.203 49.3493 444.868 48.7224L452.141 44.2085C452.224 44.3757 452.35 44.5429 452.517 44.7101C453.645 45.8385 455.568 46.8207 458.284 47.6566C459.831 48.1164 461.503 48.4716 463.3 48.7224C465.097 48.9314 466.957 49.0358 468.879 49.0358C474.731 49.0358 479.119 48.4925 482.045 47.4058C483.299 46.9461 484.176 46.4028 484.678 45.7758C484.803 45.6087 484.929 45.3997 485.054 45.1489C485.18 44.8563 485.242 44.4802 485.242 44.0204C485.242 43.5607 485.18 43.2263 485.054 43.0174C484.971 42.8084 484.887 42.6621 484.803 42.5785C484.636 42.4113 484.365 42.2233 483.988 42.0143C483.654 41.7635 483.111 41.4918 482.358 41.1993C480.812 40.6559 478.91 40.238 476.653 39.9454C474.396 39.6529 471.91 39.3603 469.193 39.0677L468.503 39.005C465.494 38.6707 462.694 38.3363 460.103 38.002C457.553 37.6258 455.254 37.0825 453.206 36.372C450.74 35.5361 448.755 34.3031 447.251 32.6731C445.537 30.7087 444.68 28.3264 444.68 25.5262C444.68 24.1887 444.91 22.8722 445.37 21.5765C445.83 20.3227 446.477 19.2151 447.313 18.2538C448.692 16.582 450.72 15.2237 453.394 14.1788C455.359 13.4265 457.658 12.8832 460.291 12.5488C462.965 12.1726 466.079 11.9846 469.632 11.9846C471.972 11.9846 474.229 12.1308 476.403 12.4234C478.576 12.716 480.645 13.1548 482.609 13.74C486.747 14.952 489.923 16.6865 492.138 18.9434C492.431 19.236 492.703 19.5495 492.953 19.8838C493.204 20.1764 493.434 20.4899 493.643 20.8242L486.308 25.3381L485.995 24.8992C485.451 24.3141 484.678 23.7708 483.675 23.2692C482.672 22.7677 481.502 22.3288 480.164 21.9527C477.03 20.9914 473.519 20.5107 469.632 20.5107C463.739 20.5107 459.35 21.0541 456.466 22.1408C455.171 22.6423 454.293 23.1856 453.833 23.7708C453.708 23.9379 453.583 24.1678 453.457 24.4604C453.332 24.7111 453.269 25.0664 453.269 25.5262C453.269 25.9859 453.311 26.3203 453.394 26.5292C453.52 26.7382 453.624 26.8845 453.708 26.9681C453.833 27.1353 454.084 27.3442 454.46 27.595C454.836 27.804 455.38 28.0548 456.09 28.3473C457.637 28.8907 459.538 29.3086 461.795 29.6012C464.052 29.8937 466.56 30.1863 469.318 30.4789L469.945 30.5416C472.955 30.8759 475.755 31.2312 478.346 31.6073C480.937 31.9417 483.236 32.4641 485.242 33.1746Z" fill="#004B46"></path>
<path d="M503.396 57.1232V13.2384H550.604V21.1377H512.173V29.9146H547.971V38.2527H512.173V49.2239H550.604V57.1232H503.396Z" fill="#004B46"></path>
<path d="M607.595 48.7851V57.1232H560.638V13.2384H569.415V48.7851H607.595Z" fill="#004B46"></path>
<path d="M617.026 57.1232V13.2384H664.234V21.1377H625.803V29.9146H661.601V38.2527H625.803V49.2239H664.234V57.1232H617.026Z" fill="#004B46"></path>
<path d="M698.824 57.1232C695.146 57.1232 691.677 56.559 688.417 55.4305C685.282 54.3856 682.482 52.8392 680.016 50.7912C677.508 48.6597 675.607 46.2356 674.311 43.5189C672.932 40.7186 672.242 37.7303 672.242 34.5539C672.242 31.3775 672.932 28.3682 674.311 25.5262C675.649 22.7677 677.55 20.3645 680.016 18.3165C682.44 16.2686 685.241 14.7012 688.417 13.6146C691.677 12.4861 695.146 11.9219 698.824 11.9219C704.383 11.9219 709.461 13.1339 714.058 15.558C718.697 17.9822 722.146 21.2422 724.402 25.3381L716.879 29.4758C715.458 26.8845 713.181 24.7738 710.046 23.1438C708.416 22.2661 706.64 21.6183 704.717 21.2004C702.836 20.7406 700.872 20.5107 698.824 20.5107C696.191 20.5107 693.725 20.8869 691.426 21.6392C689.169 22.3497 687.205 23.4155 685.533 24.8365C683.987 26.1322 682.796 27.6159 681.96 29.2877C681.166 30.9177 680.768 32.6731 680.768 34.5539C680.768 36.3929 681.166 38.1482 681.96 39.82C682.796 41.4501 683.987 42.9129 685.533 44.2085C687.205 45.6296 689.169 46.7162 691.426 47.4685C693.725 48.2208 696.191 48.597 698.824 48.597C702.962 48.597 706.702 47.6984 710.046 45.9012C713.181 44.313 715.458 42.2233 716.879 39.632L724.402 43.707C722.146 47.8029 718.697 51.0629 714.058 53.487C709.461 55.9111 704.383 57.1232 698.824 57.1232Z" fill="#004B46"></path>
<path d="M786.547 13.2384V22.0154H764.981V57.2486H756.204V22.0154H734.638V13.2384H786.547Z" fill="#004B46"></path>
<path fill-rule="evenodd" clip-rule="evenodd" d="M86.7201 12.2981C90.356 12.2982 93.7623 12.8208 96.9384 13.8655C100.156 14.8686 103.02 16.3731 105.527 18.3791C108.244 20.5106 110.292 23.0183 111.672 25.9019C113.093 28.7439 113.803 31.7955 113.803 35.0553C113.803 38.357 113.051 41.4506 111.546 44.3343C110.167 47.0925 108.182 49.5164 105.591 51.6059C103.083 53.612 100.198 55.1384 96.9384 56.1832C93.7205 57.228 90.3141 57.7506 86.7201 57.7507C83.1259 57.7507 79.7192 57.228 76.5011 56.1832C73.283 55.1384 70.4198 53.612 67.9121 51.6059C65.2374 49.4745 63.1896 47.0088 61.7686 44.2087C60.3476 41.3667 59.6368 38.3152 59.6368 35.0553C59.6369 31.7537 60.3891 28.6186 61.8936 25.6513C63.3146 22.9349 65.321 20.5318 67.9121 18.4422C70.4197 16.4362 73.2831 14.9104 76.5011 13.8655C79.7192 12.8208 83.1259 12.2981 86.7201 12.2981ZM86.7201 20.8246C84.0873 20.8246 81.6208 21.2005 79.3223 21.9527C77.0237 22.705 74.9959 23.771 73.2406 25.1501C71.6109 26.4038 70.3779 27.8873 69.542 29.6006C68.6644 31.314 68.2259 33.1329 68.2258 35.0553C68.2259 37.0196 68.6644 38.8384 69.542 40.5101C70.3779 42.1399 71.6108 43.6239 73.2406 44.9612C74.9959 46.3403 77.0237 47.4063 79.3223 48.1585C81.6208 48.8689 84.0873 49.2235 86.7201 49.2235C89.353 49.2235 91.8193 48.8477 94.1179 48.0954C96.4165 47.3431 98.4437 46.2772 100.199 44.8981C101.829 43.6443 103.082 42.1604 103.96 40.447C104.838 38.7753 105.277 36.9777 105.277 35.0553C105.277 33.0912 104.838 31.2521 103.96 29.5387C103.082 27.9088 101.85 26.4243 100.261 25.087C98.5062 23.7079 96.4582 22.6632 94.1179 21.9527C91.8193 21.2005 89.353 20.8247 86.7201 20.8246Z" fill="#004B46"></path>
<path d="M147.769 11.9844C150.109 11.9844 152.366 12.1306 154.54 12.4231C156.713 12.7157 158.782 13.1549 160.746 13.7399C164.884 14.952 168.061 16.6866 170.276 18.9435C170.568 19.236 170.84 19.5498 171.091 19.8841C171.341 20.1766 171.571 20.4904 171.78 20.8246L164.446 25.3382L164.132 24.8989C163.588 24.3139 162.815 23.7709 161.812 23.2695C160.809 22.768 159.639 22.3289 158.301 21.9527C155.167 20.9915 151.656 20.5109 147.769 20.5109C141.876 20.5109 137.488 21.0543 134.604 22.1408C133.309 22.6424 132.43 23.1857 131.97 23.7708C131.845 23.9379 131.72 24.1678 131.595 24.4601C131.469 24.7109 131.407 25.0666 131.407 25.5263C131.407 25.9858 131.449 26.3199 131.532 26.5288C131.658 26.7377 131.762 26.8846 131.845 26.9681C131.971 27.1353 132.221 27.3444 132.597 27.595C132.973 27.8039 133.517 28.055 134.227 28.3475C135.774 28.8908 137.676 29.308 139.933 29.6006C142.189 29.8931 144.697 30.1861 147.455 30.4786L148.083 30.5411C151.092 30.8755 153.893 31.2312 156.484 31.6073C159.075 31.9417 161.374 32.4643 163.38 33.1748C165.887 34.0524 167.872 35.3061 169.335 36.9359C171.049 38.9002 171.906 41.2622 171.906 44.0206C171.906 45.4414 171.697 46.7579 171.279 47.9698C170.861 49.0982 170.213 50.2062 169.335 51.2928C167.872 53.048 165.845 54.407 163.254 55.3683C159.367 56.8728 153.954 57.625 147.017 57.625C142.294 57.625 137.948 57.0183 133.977 55.8064C129.798 54.5944 126.621 52.8602 124.448 50.6035C123.821 49.9766 123.34 49.3491 123.006 48.7223L130.278 44.2087C130.362 44.3758 130.487 44.5429 130.654 44.7099C131.783 45.8383 133.705 46.8203 136.422 47.6561C137.968 48.1158 139.64 48.4715 141.438 48.7223C143.234 48.9312 145.094 49.036 147.017 49.036C152.868 49.036 157.257 48.4927 160.182 47.4061C161.436 46.9464 162.314 46.4029 162.815 45.7761C162.941 45.6091 163.066 45.3999 163.192 45.1493C163.317 44.8568 163.38 44.4802 163.38 44.0206C163.38 43.5609 163.317 43.2259 163.192 43.0169C163.108 42.8084 163.024 42.6624 162.941 42.5788C162.774 42.4117 162.502 42.2233 162.126 42.0144C161.792 41.7637 161.248 41.4919 160.496 41.1995C158.95 40.6561 157.048 40.2377 154.791 39.9451C152.534 39.6526 150.046 39.3602 147.33 39.0677L146.64 39.0046C143.632 38.6702 140.831 38.3364 138.24 38.0021C135.691 37.6259 133.391 37.0826 131.344 36.3721C128.878 35.5363 126.892 34.3034 125.388 32.6735C123.674 30.7092 122.818 28.3265 122.818 25.5263C122.818 24.189 123.047 22.872 123.507 21.5765C123.967 20.3229 124.614 19.2152 125.45 18.2541C126.829 16.5824 128.857 15.2235 131.532 14.1787C133.497 13.4265 135.795 12.8831 138.428 12.5487C141.103 12.1726 144.217 11.9844 147.769 11.9844Z" fill="#004B46"></path>
<path d="M232.71 22.0152H211.144V57.2482H202.367V22.0152H180.801V13.2381H232.71V22.0152Z" fill="#004B46"></path>
<path d="M26.581 11.9219C32.1396 11.9219 37.2186 13.1339 41.816 15.558C46.4549 17.982 49.9025 21.2425 52.1593 25.3382L44.6365 29.4762C43.2155 26.885 40.9374 24.7739 37.803 23.1439C36.1732 22.2664 34.3967 21.6182 32.4745 21.2003C30.5938 20.7405 28.6288 20.5109 26.581 20.5109C23.9481 20.5109 21.4823 20.8874 19.1837 21.6396C16.9269 22.3501 14.962 23.416 13.2902 24.837C11.744 26.1325 10.5531 27.6164 9.71724 29.2881C8.92324 30.9179 8.52548 32.6729 8.52543 34.5535C8.52543 36.3924 8.92322 38.1478 9.71724 39.8195C10.5531 41.4495 11.7439 42.9131 13.2902 44.2087C14.962 45.6296 16.9269 46.7163 19.1837 47.4686C21.4822 48.2207 23.9482 48.5967 26.581 48.5967C30.7184 48.5966 34.4596 47.6988 37.803 45.9018C40.9374 44.3136 43.2155 42.2231 44.6365 39.632L52.1593 43.7069C49.9025 47.8025 46.4549 51.063 41.816 53.4871C37.2186 55.9112 32.1396 57.1232 26.581 57.1232C22.9031 57.1232 19.4338 56.5585 16.1739 55.4301C13.0395 54.3853 10.2393 52.8387 7.77357 50.791C5.26608 48.6595 3.36379 46.2358 2.06818 43.5194C0.688947 40.7191 -0.000488281 37.7299 -0.000488281 34.5535C-0.000431228 31.3773 0.689112 28.3682 2.06818 25.5263C3.4056 22.768 5.30778 20.3645 7.77357 18.3166C10.1975 16.2689 12.9977 14.7015 16.1739 13.6149C19.4338 12.4865 22.9031 11.9219 26.581 11.9219Z" fill="#004B46"></path>
<path fill-rule="evenodd" clip-rule="evenodd" d="M293.724 56.9964H283.434L278.038 48.1494H244.97L239.637 56.9964H229.284L255.888 13.0739H267.183L293.724 56.9964ZM250.053 39.8036H273.018L261.536 20.7915L250.053 39.8036Z" fill="#004B46"></path>
</g>
<defs>
<clipPath id="clip0_193_424">
<rect width="787" height="58" fill="white"></rect>
</clipPath>
</defs>
</svg>